<svg version="1.1" viewBox="0.0 0.0 940.0 582.0" fill="none" stroke="none" stroke-linecap="square" stroke-miterlimit="10" width="940" height="582" xmlns:xlink="http://www.w3.org/1999/xlink" xmlns="http://www.w3.org/2000/svg"><path fill="#2e3440" d="M0 0L940.0 0L940.0 582.0L0 582.0L0 0Z" fill-rule="nonzero"/><path stroke="#ffffff" stroke-width="1.0" stroke-linecap="butt" d="M58.5 531.5L910.5 531.5" fill-rule="nonzero"/><path stroke="#626770" stroke-width="1.0" stroke-linecap="butt" d="M58.5 441.5L910.5 441.5" fill-rule="nonzero"/><path stroke="#626770" stroke-width="1.0" stroke-linecap="butt" d="M58.5 351.5L910.5 351.5" fill-rule="nonzero"/><path stroke="#626770" stroke-width="1.0" stroke-linecap="butt" d="M58.5 260.5L910.5 260.5" fill-rule="nonzero"/><path stroke="#626770" stroke-width="1.0" stroke-linecap="butt" d="M58.5 170.5L910.5 170.5" fill-rule="nonzero"/><path stroke="#626770" stroke-width="1.0" stroke-linecap="butt" d="M58.5 80.5L910.5 80.5" fill-rule="nonzero"/><clipPath id="id_0"><path d="M58.1 80.0L910.9 80.0L910.9 531.9L58.1 531.9L58.1 80.0Z" clip-rule="nonzero"/></clipPath><path stroke="#000000" stroke-width="2.0" stroke-linecap="butt" stroke-opacity="0.0" clip-path="url(#id_0)" d="M134.0 532.0L85.0 532.0L85.0 317.0C85.0 315.89542 85.89543 315.0 87.0 315.0L132.0 315.0C133.10457 315.0 134.0 315.89542 134.0 317.0Z" fill-rule="nonzero"/><path fill="#666666" clip-path="url(#id_0)" d="M134.0 532.0L85.0 532.0L85.0 317.0C85.0 315.89542 85.89543 315.0 87.0 315.0L132.0 315.0C133.10457 315.0 134.0 315.89542 134.0 317.0Z" fill-rule="nonzero"/><path stroke="#000000" stroke-width="2.0" stroke-linecap="butt" stroke-opacity="0.0" clip-path="url(#id_0)" d="M209.0 532.0L160.0 532.0L160.0 389.0C160.0 387.89542 160.89543 387.0 162.0 387.0L207.0 387.0C208.10457 387.0 209.0 387.89542 209.0 389.0Z" fill-rule="nonzero"/><path fill="#666666" clip-path="url(#id_0)" d="M209.0 532.0L160.0 532.0L160.0 389.0C160.0 387.89542 160.89543 387.0 162.0 387.0L207.0 387.0C208.10457 387.0 209.0 387.89542 209.0 389.0Z" fill-rule="nonzero"/><path stroke="#000000" stroke-width="2.0" stroke-linecap="butt" stroke-opacity="0.0" clip-path="url(#id_0)" d="M284.0 532.0L235.0 532.0L235.0 353.0C235.0 351.89542 235.89543 351.0 237.0 351.0L282.0 351.0C283.10458 351.0 284.0 351.89542 284.0 353.0Z" fill-rule="nonzero"/><path fill="#666666" clip-path="url(#id_0)" d="M284.0 532.0L235.0 532.0L235.0 353.0C235.0 351.89542 235.89543 351.0 237.0 351.0L282.0 351.0C283.10458 351.0 284.0 351.89542 284.0 353.0Z" fill-rule="nonzero"/><path stroke="#000000" stroke-width="2.0" stroke-linecap="butt" stroke-opacity="0.0" clip-path="url(#id_0)" d="M359.0 532.0L310.0 532.0L310.0 389.0C310.0 387.89542 310.89542 387.0 312.0 387.0L357.0 387.0C358.10458 387.0 359.0 387.89542 359.0 389.0Z" fill-rule="nonzero"/><path fill="#666666" clip-path="url(#id_0)" d="M359.0 532.0L310.0 532.0L310.0 389.0C310.0 387.89542 310.89542 387.0 312.0 387.0L357.0 387.0C358.10458 387.0 359.0 387.89542 359.0 389.0Z" fill-rule="nonzero"/><path stroke="#000000" stroke-width="2.0" stroke-linecap="butt" stroke-opacity="0.0" clip-path="url(#id_0)" d="M434.0 532.0L385.0 532.0L385.0 480.0C385.0 478.89542 385.89542 478.0 387.0 478.0L432.0 478.0C433.10458 478.0 434.0 478.89542 434.0 480.0Z" fill-rule="nonzero"/><path fill="#666666" clip-path="url(#id_0)" d="M434.0 532.0L385.0 532.0L385.0 480.0C385.0 478.89542 385.89542 478.0 387.0 478.0L432.0 478.0C433.10458 478.0 434.0 478.89542 434.0 480.0Z" fill-rule="nonzero"/><path stroke="#000000" stroke-width="2.0" stroke-linecap="butt" stroke-opacity="0.0" clip-path="url(#id_0)" d="M510.0 532.0L461.0 532.0L461.0 209.0C461.0 207.89543 461.89542 207.0 463.0 207.0L508.0 207.0C509.10458 207.0 510.0 207.89543 510.0 209.0Z" fill-rule="nonzero"/><path fill="#666666" clip-path="url(#id_0)" d="M510.0 532.0L461.0 532.0L461.0 209.0C461.0 207.89543 461.89542 207.0 463.0 207.0L508.0 207.0C509.10458 207.0 510.0 207.89543 510.0 209.0Z" fill-rule="nonzero"/><path stroke="#000000" stroke-width="2.0" stroke-linecap="butt" stroke-opacity="0.0" clip-path="url(#id_0)" d="M585.0 532.0L536.0 532.0L536.0 389.0C536.0 387.89542 536.89545 387.0 538.0 387.0L583.0 387.0C584.10455 387.0 585.0 387.89542 585.0 389.0Z" fill-rule="nonzero"/><path fill="#666666" clip-path="url(#id_0)" d="M585.0 532.0L536.0 532.0L536.0 389.0C536.0 387.89542 536.89545 387.0 538.0 387.0L583.0 387.0C584.10455 387.0 585.0 387.89542 585.0 389.0Z" fill-rule="nonzero"/><path stroke="#000000" stroke-width="2.0" stroke-linecap="butt" stroke-opacity="0.0" clip-path="url(#id_0)" d="M660.0 532.0L611.0 532.0L611.0 462.0C611.0 460.89542 611.89545 460.0 613.0 460.0L658.0 460.0C659.10455 460.0 660.0 460.89542 660.0 462.0Z" fill-rule="nonzero"/><path fill="#ff0068" clip-path="url(#id_0)" d="M660.0 532.0L611.0 532.0L611.0 462.0C611.0 460.89542 611.89545 460.0 613.0 460.0L658.0 460.0C659.10455 460.0 660.0 460.89542 660.0 462.0Z" fill-rule="nonzero"/><path stroke="#000000" stroke-width="2.0" stroke-linecap="butt" stroke-opacity="0.0" clip-path="url(#id_0)" d="M735.0 532.0L686.0 532.0L686.0 480.0C686.0 478.89542 686.89545 478.0 688.0 478.0L733.0 478.0C734.10455 478.0 735.0 478.89542 735.0 480.0Z" fill-rule="nonzero"/><path fill="#ff0068" clip-path="url(#id_0)" d="M735.0 532.0L686.0 532.0L686.0 480.0C686.0 478.89542 686.89545 478.0 688.0 478.0L733.0 478.0C734.10455 478.0 735.0 478.89542 735.0 480.0Z" fill-rule="nonzero"/><path stroke="#000000" stroke-width="2.0" stroke-linecap="butt" stroke-opacity="0.0" clip-path="url(#id_0)" d="M810.0 532.0L761.0 532.0L761.0 407.0C761.0 405.89542 761.89545 405.0 763.0 405.0L808.0 405.0C809.10455 405.0 810.0 405.89542 810.0 407.0Z" fill-rule="nonzero"/><path fill="#666666" clip-path="url(#id_0)" d="M810.0 532.0L761.0 532.0L761.0 407.0C761.0 405.89542 761.89545 405.0 763.0 405.0L808.0 405.0C809.10455 405.0 810.0 405.89542 810.0 407.0Z" fill-rule="nonzero"/><path stroke="#000000" stroke-width="2.0" stroke-linecap="butt" stroke-opacity="0.0" clip-path="url(#id_0)" d="M885.0 532.0L836.0 532.0L836.0 100.0C836.0 98.89543 836.89545 98.0 838.0 98.0L883.0 98.0C884.10455 98.0 885.0 98.89543 885.0 100.0Z" fill-rule="nonzero"/><path fill="#666666" clip-path="url(#id_0)" d="M885.0 532.0L836.0 532.0L836.0 100.0C836.0 98.89543 836.89545 98.0 838.0 98.0L883.0 98.0C884.10455 98.0 885.0 98.89543 885.0 100.0Z" fill-rule="nonzero"/><path fill="#f3f3f3" d="M42.1625 532.7594Q42.1625 534.66565 41.50625 535.60315Q40.865623 536.525 39.475 536.525Q38.115623 536.525 37.459373 535.6188Q36.803123 534.7125 36.771873 532.9L36.771873 531.4625Q36.771873 529.5719 37.4125 528.66565Q38.06875 527.7438 39.459373 527.7438Q40.834373 527.7438 41.490623 528.6344Q42.146873 529.5094 42.1625 531.35315L42.1625 532.7594ZM41.06875 531.275Q41.06875 529.9 40.678123 529.275Q40.303123 528.6344 39.459373 528.6344Q38.63125 528.6344 38.240623 529.275Q37.865623 529.9 37.865623 531.1969L37.865623 532.9313Q37.865623 534.3063 38.25625 534.97815Q38.6625 535.6344 39.475 535.6344Q40.271873 535.6344 40.6625 535.0094Q41.053123 534.3844 41.06875 533.0563L41.06875 531.275ZM43.709373 529.5094Q43.709373 528.7438 44.19375 528.2438Q44.69375 527.7438 45.459373 527.7438Q46.240623 527.7438 46.725 528.2438Q47.209373 528.7438 47.209373 529.54065L47.209373 529.9625Q47.209373 530.72815 46.709373 531.22815Q46.225 531.7125 45.475 531.7125Q44.709373 531.7125 44.209373 531.22815Q43.709373 530.72815 43.709373 529.91565L43.709373 529.5094ZM44.521873 529.9625Q44.521873 530.41565 44.771873 530.7125Q45.0375 531.0094 45.475 531.0094Q45.896873 531.0094 46.146873 530.72815Q46.396873 530.4313 46.396873 529.9313L46.396873 529.5094Q46.396873 529.0563 46.146873 528.7594Q45.896873 528.4469 45.459373 528.4469Q45.021873 528.4469 44.771873 528.7594Q44.521873 529.0563 44.521873 529.525L44.521873 529.9625ZM47.865623 534.3063Q47.865623 533.54065 48.35 533.0563Q48.85 532.5563 49.615623 532.5563Q50.38125 532.5563 50.865623 533.0563Q51.365623 533.54065 51.365623 534.35315L51.365623 534.7594Q51.365623 535.525 50.88125 536.025Q50.396873 536.525 49.63125 536.525Q48.865623 536.525 48.365623 536.04065Q47.865623 535.54065 47.865623 534.72815L47.865623 534.3063ZM48.678123 534.7594Q48.678123 535.22815 48.928123 535.525Q49.19375 535.8219 49.63125 535.8219Q50.053123 535.8219 50.303123 535.54065Q50.553123 535.2438 50.553123 534.7438L50.553123 534.3063Q50.553123 533.8375 50.2875 533.5563Q50.0375 533.2594 49.615623 533.2594Q49.19375 533.2594 48.928123 533.5563Q48.678123 533.8375 48.678123 534.3375L48.678123 534.7594ZM45.725 535.7594L45.1 535.3688L49.271873 528.6969L49.88125 529.0875L45.725 535.7594Z" fill-rule="nonzero"/><path fill="#f3f3f3" d="M37.303123 441.73874L37.740623 437.48874L42.115623 437.48874L42.115623 438.48874L38.6625 438.48874L38.396873 440.81686Q39.0375 440.44186 39.834373 440.44186Q40.990623 440.44186 41.678123 441.2231Q42.365623 441.98874 42.365623 443.30124Q42.365623 444.61374 41.646873 445.37936Q40.94375 446.145 39.6625 446.145Q38.5375 446.145 37.81875 445.52Q37.1 444.87936 37.00625 443.77L38.021873 443.77Q38.13125 444.50436 38.553123 444.87936Q38.975 445.25436 39.6625 445.25436Q40.4125 445.25436 40.85 444.73874Q41.2875 444.2231 41.2875 443.31686Q41.2875 442.4575 40.81875 441.94186Q40.35 441.42624 39.56875 441.42624Q38.865623 441.42624 38.459373 441.7231L38.178123 441.9575L37.303123 441.73874ZM43.709373 439.12936Q43.709373 438.36374 44.19375 437.86374Q44.69375 437.36374 45.459373 437.36374Q46.240623 437.36374 46.725 437.86374Q47.209373 438.36374 47.209373 439.1606L47.209373 439.5825Q47.209373 440.3481 46.709373 440.8481Q46.225 441.3325 45.475 441.3325Q44.709373 441.3325 44.209373 440.8481Q43.709373 440.3481 43.709373 439.5356L43.709373 439.12936ZM44.521873 439.5825Q44.521873 440.0356 44.771873 440.3325Q45.0375 440.62936 45.475 440.62936Q45.896873 440.62936 46.146873 440.3481Q46.396873 440.05124 46.396873 439.55124L46.396873 439.12936Q46.396873 438.67624 46.146873 438.37936Q45.896873 438.06686 45.459373 438.06686Q45.021873 438.06686 44.771873 438.37936Q44.521873 438.67624 44.521873 439.145L44.521873 439.5825ZM47.865623 443.92624Q47.865623 443.1606 48.35 442.67624Q48.85 442.17624 49.615623 442.17624Q50.38125 442.17624 50.865623 442.67624Q51.365623 443.1606 51.365623 443.9731L51.365623 444.37936Q51.365623 445.145 50.88125 445.645Q50.396873 446.145 49.63125 446.145Q48.865623 446.145 48.365623 445.6606Q47.865623 445.1606 47.865623 444.3481L47.865623 443.92624ZM48.678123 444.37936Q48.678123 444.8481 48.928123 445.145Q49.19375 445.44186 49.63125 445.44186Q50.053123 445.44186 50.303123 445.1606Q50.553123 444.86374 50.553123 444.36374L50.553123 443.92624Q50.553123 443.4575 50.2875 443.17624Q50.0375 442.87936 49.615623 442.87936Q49.19375 442.87936 48.928123 443.17624Q48.678123 443.4575 48.678123 443.9575L48.678123 444.37936ZM45.725 445.37936L45.1 444.98874L49.271873 438.31686L49.88125 438.7075L45.725 445.37936Z" fill-rule="nonzero"/><path fill="#f3f3f3" d="M33.365623 355.64L32.2875 355.64L32.2875 348.42126L30.1 349.21814L30.1 348.23376L33.209373 347.0619L33.365623 347.0619L33.365623 355.64ZM42.1625 351.9994Q42.1625 353.90564 41.50625 354.84314Q40.865623 355.765 39.475 355.765Q38.115623 355.765 37.459373 354.85876Q36.803123 353.9525 36.771873 352.14L36.771873 350.7025Q36.771873 348.8119 37.4125 347.90564Q38.06875 346.98376 39.459373 346.98376Q40.834373 346.98376 41.490623 347.8744Q42.146873 348.7494 42.1625 350.59314L42.1625 351.9994ZM41.06875 350.515Q41.06875 349.14 40.678123 348.515Q40.303123 347.8744 39.459373 347.8744Q38.63125 347.8744 38.240623 348.515Q37.865623 349.14 37.865623 350.4369L37.865623 352.17126Q37.865623 353.54626 38.25625 354.21814Q38.6625 354.8744 39.475 354.8744Q40.271873 354.8744 40.6625 354.2494Q41.053123 353.6244 41.06875 352.29626L41.06875 350.515ZM43.709373 348.7494Q43.709373 347.98376 44.19375 347.48376Q44.69375 346.98376 45.459373 346.98376Q46.240623 346.98376 46.725 347.48376Q47.209373 347.98376 47.209373 348.78064L47.209373 349.2025Q47.209373 349.96814 46.709373 350.46814Q46.225 350.9525 45.475 350.9525Q44.709373 350.9525 44.209373 350.46814Q43.709373 349.96814 43.709373 349.15564L43.709373 348.7494ZM44.521873 349.2025Q44.521873 349.65564 44.771873 349.9525Q45.0375 350.2494 45.475 350.2494Q45.896873 350.2494 46.146873 349.96814Q46.396873 349.67126 46.396873 349.17126L46.396873 348.7494Q46.396873 348.29626 46.146873 347.9994Q45.896873 347.6869 45.459373 347.6869Q45.021873 347.6869 44.771873 347.9994Q44.521873 348.29626 44.521873 348.765L44.521873 349.2025ZM47.865623 353.54626Q47.865623 352.78064 48.35 352.29626Q48.85 351.79626 49.615623 351.79626Q50.38125 351.79626 50.865623 352.29626Q51.365623 352.78064 51.365623 353.59314L51.365623 353.9994Q51.365623 354.765 50.88125 355.265Q50.396873 355.765 49.63125 355.765Q48.865623 355.765 48.365623 355.28064Q47.865623 354.78064 47.865623 353.96814L47.865623 353.54626ZM48.678123 353.9994Q48.678123 354.46814 48.928123 354.765Q49.19375 355.0619 49.63125 355.0619Q50.053123 355.0619 50.303123 354.78064Q50.553123 354.48376 50.553123 353.98376L50.553123 353.54626Q50.553123 353.0775 50.2875 352.79626Q50.0375 352.4994 49.615623 352.4994Q49.19375 352.4994 48.928123 352.79626Q48.678123 353.0775 48.678123 353.5775L48.678123 353.9994ZM45.725 354.9994L45.1 354.60876L49.271873 347.9369L49.88125 348.3275L45.725 354.9994Z" fill-rule="nonzero"/><path fill="#f3f3f3" d="M33.365623 265.26L32.2875 265.26L32.2875 258.04126L30.1 258.83813L30.1 257.85376L33.209373 256.6819L33.365623 256.6819L33.365623 265.26ZM37.303123 260.97876L37.740623 256.72876L42.115623 256.72876L42.115623 257.72876L38.6625 257.72876L38.396873 260.0569Q39.0375 259.6819 39.834373 259.6819Q40.990623 259.6819 41.678123 260.46313Q42.365623 261.22876 42.365623 262.54126Q42.365623 263.85376 41.646873 264.6194Q40.94375 265.385 39.6625 265.385Q38.5375 265.385 37.81875 264.76Q37.1 264.1194 37.00625 263.01L38.021873 263.01Q38.13125 263.7444 38.553123 264.1194Q38.975 264.4944 39.6625 264.4944Q40.4125 264.4944 40.85 263.97876Q41.2875 263.46313 41.2875 262.5569Q41.2875 261.6975 40.81875 261.1819Q40.35 260.66626 39.56875 260.66626Q38.865623 260.66626 38.459373 260.96313L38.178123 261.1975L37.303123 260.97876ZM43.709373 258.3694Q43.709373 257.60376 44.19375 257.10376Q44.69375 256.60376 45.459373 256.60376Q46.240623 256.60376 46.725 257.10376Q47.209373 257.60376 47.209373 258.40063L47.209373 258.8225Q47.209373 259.58813 46.709373 260.08813Q46.225 260.5725 45.475 260.5725Q44.709373 260.5725 44.209373 260.08813Q43.709373 259.58813 43.709373 258.77563L43.709373 258.3694ZM44.521873 258.8225Q44.521873 259.27563 44.771873 259.5725Q45.0375 259.8694 45.475 259.8694Q45.896873 259.8694 46.146873 259.58813Q46.396873 259.29126 46.396873 258.79126L46.396873 258.3694Q46.396873 257.91626 46.146873 257.6194Q45.896873 257.3069 45.459373 257.3069Q45.021873 257.3069 44.771873 257.6194Q44.521873 257.91626 44.521873 258.385L44.521873 258.8225ZM47.865623 263.16626Q47.865623 262.40063 48.35 261.91626Q48.85 261.41626 49.615623 261.41626Q50.38125 261.41626 50.865623 261.91626Q51.365623 262.40063 51.365623 263.21313L51.365623 263.6194Q51.365623 264.385 50.88125 264.885Q50.396873 265.385 49.63125 265.385Q48.865623 265.385 48.365623 264.90063Q47.865623 264.40063 47.865623 263.58813L47.865623 263.16626ZM48.678123 263.6194Q48.678123 264.08813 48.928123 264.385Q49.19375 264.6819 49.63125 264.6819Q50.053123 264.6819 50.303123 264.40063Q50.553123 264.10376 50.553123 263.60376L50.553123 263.16626Q50.553123 262.6975 50.2875 262.41626Q50.0375 262.1194 49.615623 262.1194Q49.19375 262.1194 48.928123 262.41626Q48.678123 262.6975 48.678123 263.1975L48.678123 263.6194ZM45.725 264.6194L45.1 264.22876L49.271873 257.5569L49.88125 257.9475L45.725 264.6194Z" fill-rule="nonzero"/><path fill="#f3f3f3" d="M35.396873 174.88L29.803125 174.88L29.803125 174.09875L32.75625 170.8175Q33.4125 170.0675 33.6625 169.61438Q33.9125 169.14563 33.9125 168.64563Q33.9125 167.97375 33.50625 167.55188Q33.115623 167.11438 32.428123 167.11438Q31.63125 167.11438 31.178125 167.58313Q30.725 168.03625 30.725 168.86438L29.646875 168.86438Q29.646875 167.67688 30.396875 166.95813Q31.1625 166.22375 32.428123 166.22375Q33.63125 166.22375 34.31875 166.84875Q35.00625 167.47375 35.00625 168.52063Q35.00625 169.77063 33.396873 171.52063L31.115625 173.98938L35.396873 173.98938L35.396873 174.88ZM42.1625 171.23938Q42.1625 173.14563 41.50625 174.08313Q40.865623 175.005 39.475 175.005Q38.115623 175.005 37.459373 174.09875Q36.803123 173.1925 36.771873 171.38L36.771873 169.9425Q36.771873 168.05188 37.4125 167.14563Q38.06875 166.22375 39.459373 166.22375Q40.834373 166.22375 41.490623 167.11438Q42.146873 167.98938 42.1625 169.83313L42.1625 171.23938ZM41.06875 169.755Q41.06875 168.38 40.678123 167.755Q40.303123 167.11438 39.459373 167.11438Q38.63125 167.11438 38.240623 167.755Q37.865623 168.38 37.865623 169.67688L37.865623 171.41125Q37.865623 172.78625 38.25625 173.45813Q38.6625 174.11438 39.475 174.11438Q40.271873 174.11438 40.6625 173.48938Q41.053123 172.86438 41.06875 171.53625L41.06875 169.755ZM43.709373 167.98938Q43.709373 167.22375 44.19375 166.72375Q44.69375 166.22375 45.459373 166.22375Q46.240623 166.22375 46.725 166.72375Q47.209373 167.22375 47.209373 168.02063L47.209373 168.4425Q47.209373 169.20813 46.709373 169.70813Q46.225 170.1925 45.475 170.1925Q44.709373 170.1925 44.209373 169.70813Q43.709373 169.20813 43.709373 168.39563L43.709373 167.98938ZM44.521873 168.4425Q44.521873 168.89563 44.771873 169.1925Q45.0375 169.48938 45.475 169.48938Q45.896873 169.48938 46.146873 169.20813Q46.396873 168.91125 46.396873 168.41125L46.396873 167.98938Q46.396873 167.53625 46.146873 167.23938Q45.896873 166.92688 45.459373 166.92688Q45.021873 166.92688 44.771873 167.23938Q44.521873 167.53625 44.521873 168.005L44.521873 168.4425ZM47.865623 172.78625Q47.865623 172.02063 48.35 171.53625Q48.85 171.03625 49.615623 171.03625Q50.38125 171.03625 50.865623 171.53625Q51.365623 172.02063 51.365623 172.83313L51.365623 173.23938Q51.365623 174.005 50.88125 174.505Q50.396873 175.005 49.63125 175.005Q48.865623 175.005 48.365623 174.52063Q47.865623 174.02063 47.865623 173.20813L47.865623 172.78625ZM48.678123 173.23938Q48.678123 173.70813 48.928123 174.005Q49.19375 174.30188 49.63125 174.30188Q50.053123 174.30188 50.303123 174.02063Q50.553123 173.72375 50.553123 173.22375L50.553123 172.78625Q50.553123 172.3175 50.2875 172.03625Q50.0375 171.73938 49.615623 171.73938Q49.19375 171.73938 48.928123 172.03625Q48.678123 172.3175 48.678123 172.8175L48.678123 173.23938ZM45.725 174.23938L45.1 173.84875L49.271873 167.17688L49.88125 167.5675L45.725 174.23938Z" fill-rule="nonzero"/><path fill="#f3f3f3" d="M35.396873 84.5L29.803125 84.5L29.803125 83.71875L32.75625 80.4375Q33.4125 79.6875 33.6625 79.234375Q33.9125 78.765625 33.9125 78.265625Q33.9125 77.59375 33.50625 77.171875Q33.115623 76.734375 32.428123 76.734375Q31.63125 76.734375 31.178125 77.203125Q30.725 77.65625 30.725 78.484375L29.646875 78.484375Q29.646875 77.296875 30.396875 76.578125Q31.1625 75.84375 32.428123 75.84375Q33.63125 75.84375 34.31875 76.46875Q35.00625 77.09375 35.00625 78.140625Q35.00625 79.390625 33.396873 81.140625L31.115625 83.609375L35.396873 83.609375L35.396873 84.5ZM37.303123 80.21875L37.740623 75.96875L42.115623 75.96875L42.115623 76.96875L38.6625 76.96875L38.396873 79.296875Q39.0375 78.921875 39.834373 78.921875Q40.990623 78.921875 41.678123 79.703125Q42.365623 80.46875 42.365623 81.78125Q42.365623 83.09375 41.646873 83.859375Q40.94375 84.625 39.6625 84.625Q38.5375 84.625 37.81875 84.0Q37.1 83.359375 37.00625 82.25L38.021873 82.25Q38.13125 82.984375 38.553123 83.359375Q38.975 83.734375 39.6625 83.734375Q40.4125 83.734375 40.85 83.21875Q41.2875 82.703125 41.2875 81.796875Q41.2875 80.9375 40.81875 80.421875Q40.35 79.90625 39.56875 79.90625Q38.865623 79.90625 38.459373 80.203125L38.178123 80.4375L37.303123 80.21875ZM43.709373 77.609375Q43.709373 76.84375 44.19375 76.34375Q44.69375 75.84375 45.459373 75.84375Q46.240623 75.84375 46.725 76.34375Q47.209373 76.84375 47.209373 77.640625L47.209373 78.0625Q47.209373 78.828125 46.709373 79.328125Q46.225 79.8125 45.475 79.8125Q44.709373 79.8125 44.209373 79.328125Q43.709373 78.828125 43.709373 78.015625L43.709373 77.609375ZM44.521873 78.0625Q44.521873 78.515625 44.771873 78.8125Q45.0375 79.109375 45.475 79.109375Q45.896873 79.109375 46.146873 78.828125Q46.396873 78.53125 46.396873 78.03125L46.396873 77.609375Q46.396873 77.15625 46.146873 76.859375Q45.896873 76.546875 45.459373 76.546875Q45.021873 76.546875 44.771873 76.859375Q44.521873 77.15625 44.521873 77.625L44.521873 78.0625ZM47.865623 82.40625Q47.865623 81.640625 48.35 81.15625Q48.85 80.65625 49.615623 80.65625Q50.38125 80.65625 50.865623 81.15625Q51.365623 81.640625 51.365623 82.453125L51.365623 82.859375Q51.365623 83.625 50.88125 84.125Q50.396873 84.625 49.63125 84.625Q48.865623 84.625 48.365623 84.140625Q47.865623 83.640625 47.865623 82.828125L47.865623 82.40625ZM48.678123 82.859375Q48.678123 83.328125 48.928123 83.625Q49.19375 83.921875 49.63125 83.921875Q50.053123 83.921875 50.303123 83.640625Q50.553123 83.34375 50.553123 82.84375L50.553123 82.40625Q50.553123 81.9375 50.2875 81.65625Q50.0375 81.359375 49.615623 81.359375Q49.19375 81.359375 48.928123 81.65625Q48.678123 81.9375 48.678123 82.4375L48.678123 82.859375ZM45.725 83.859375L45.1 83.46875L49.271873 76.796875L49.88125 77.1875L45.725 83.859375Z" fill-rule="nonzero"/><path fill="#f3f3f3" d="M94.05155 549.9Q93.9578 549.7125 93.8953 549.22815Q93.1453 550.025 92.09843 550.025Q91.16093 550.025 90.55155 549.4938Q89.9578 548.9625 89.9578 548.1344Q89.9578 547.15 90.7078 546.60315Q91.4578 546.0563 92.8328 546.0563L93.87968 546.0563L93.87968 545.5563Q93.87968 544.9938 93.53593 544.66565Q93.2078 544.3219 92.53593 544.3219Q91.9578 544.3219 91.56718 544.6188Q91.17655 544.9 91.17655 545.3219L90.0828 545.3219Q90.0828 544.8375 90.41093 544.4Q90.75468 543.9625 91.3328 543.7125Q91.91093 543.4469 92.59843 543.4469Q93.7078 543.4469 94.31718 543.9938Q94.94218 544.54065 94.97343 545.4938L94.97343 548.41565Q94.97343 549.29065 95.19218 549.8063L95.19218 549.9L94.05155 549.9ZM92.25468 549.0719Q92.7703 549.0719 93.22343 548.8063Q93.67655 548.54065 93.87968 548.1188L93.87968 546.8219L93.03593 546.8219Q91.03593 546.8219 91.03593 547.9938Q91.03593 548.4938 91.37968 548.79065Q91.72343 549.0719 92.25468 549.0719ZM98.31718 549.9L97.23905 549.9L97.23905 543.5563L98.31718 543.5563L98.31718 549.9ZM97.1453 541.8844Q97.1453 541.6188 97.30155 541.4313Q97.47343 541.2438 97.78593 541.2438Q98.09843 541.2438 98.25468 541.4313Q98.42655 541.6188 98.42655 541.8844Q98.42655 542.1344 98.25468 542.3219Q98.09843 542.4938 97.78593 542.4938Q97.47343 542.4938 97.30155 542.3219Q97.1453 542.1344 97.1453 541.8844ZM99.84843 546.66565Q99.84843 545.7438 100.2078 544.9938Q100.5828 544.2438 101.23905 543.85315Q101.8953 543.4469 102.72343 543.4469Q104.0203 543.4469 104.81718 544.3375Q105.62968 545.22815 105.62968 546.72815L105.62968 546.8063Q105.62968 547.72815 105.2703 548.4625Q104.91093 549.1969 104.25468 549.6188Q103.59843 550.025 102.73905 550.025Q101.4578 550.025 100.6453 549.1344Q99.84843 548.22815 99.84843 546.7438L99.84843 546.66565ZM100.94218 546.8063Q100.94218 547.85315 101.42655 548.4938Q101.92655 549.1344 102.73905 549.1344Q103.56718 549.1344 104.05155 548.4938Q104.53593 547.8375 104.53593 546.66565Q104.53593 545.6344 104.03593 544.9938Q103.55155 544.3375 102.72343 544.3375Q101.92655 544.3375 101.42655 544.97815Q100.94218 545.60315 100.94218 546.8063ZM108.22343 544.3219Q108.94218 543.4469 110.09843 543.4469Q112.11405 543.4469 112.12968 545.7125L112.12968 549.9L111.03593 549.9L111.03593 545.6969Q111.03593 545.025 110.72343 544.6969Q110.42655 544.3688 109.7703 544.3688Q109.23905 544.3688 108.8328 544.65Q108.44218 544.9313 108.22343 545.3844L108.22343 549.9L107.1453 549.9L107.1453 540.9L108.22343 540.9L108.22343 544.3219ZM115.61405 542.025L115.61405 543.5563L116.78593 543.5563L116.78593 544.4L115.61405 544.4L115.61405 548.3219Q115.61405 548.7125 115.7703 548.9Q115.92655 549.0875 116.30155 549.0875Q116.48905 549.0875 116.81718 549.025L116.81718 549.9Q116.3953 550.025 115.98905 550.025Q115.2703 550.025 114.8953 549.5875Q114.5203 549.1344 114.5203 548.3219L114.5203 544.4L113.36405 544.4L113.36405 543.5563L114.5203 543.5563L114.5203 542.025L115.61405 542.025ZM119.61405 542.025L119.61405 543.5563L120.78593 543.5563L120.78593 544.4L119.61405 544.4L119.61405 548.3219Q119.61405 548.7125 119.7703 548.9Q119.92655 549.0875 120.30155 549.0875Q120.48905 549.0875 120.81718 549.025L120.81718 549.9Q120.3953 550.025 119.98905 550.025Q119.2703 550.025 118.8953 549.5875Q118.5203 549.1344 118.5203 548.3219L118.5203 544.4L117.36405 544.4L117.36405 543.5563L118.5203 543.5563L118.5203 542.025L119.61405 542.025ZM127.48905 546.8063Q127.48905 548.2438 126.8328 549.1344Q126.17655 550.025 125.03593 550.025Q123.87968 550.025 123.22343 549.29065L123.22343 552.3375L122.1453 552.3375L122.1453 543.5563L123.12968 543.5563L123.17655 544.2594Q123.84843 543.4469 125.0203 543.4469Q126.16093 543.4469 126.81718 544.3063Q127.48905 545.16565 127.48905 546.6969L127.48905 546.8063ZM126.41093 546.6813Q126.41093 545.60315 125.94218 544.9938Q125.48905 544.3688 124.69218 544.3688Q123.7078 544.3688 123.22343 545.22815L123.22343 548.2594Q123.7078 549.1344 124.7078 549.1344Q125.48905 549.1344 125.94218 548.525Q126.41093 547.9 126.41093 546.6813Z" fill-rule="nonzero"/><path fill="#f3f3f3" d="M174.64125 546.8063Q174.64125 548.2594 173.96938 549.15Q173.31313 550.025 172.18813 550.025Q170.985 550.025 170.32875 549.16565L170.26625 549.9L169.28188 549.9L169.28188 540.9L170.36 540.9L170.36 544.2594Q171.01625 543.4469 172.1725 543.4469Q173.32875 543.4469 173.985 544.3219Q174.64125 545.1813 174.64125 546.7125L174.64125 546.8063ZM173.56313 546.6813Q173.56313 545.5719 173.12563 544.97815Q172.70375 544.3688 171.90688 544.3688Q170.82875 544.3688 170.36 545.35315L170.36 548.10315Q170.86 549.10315 171.90688 549.10315Q172.68813 549.10315 173.12563 548.4938Q173.56313 547.8844 173.56313 546.6813ZM175.985 546.66565Q175.985 545.7438 176.34438 544.9938Q176.71938 544.2438 177.37563 543.85315Q178.03188 543.4469 178.86 543.4469Q180.15688 543.4469 180.95375 544.3375Q181.76625 545.22815 181.76625 546.72815L181.76625 546.8063Q181.76625 547.72815 181.40688 548.4625Q181.0475 549.1969 180.39125 549.6188Q179.735 550.025 178.87563 550.025Q177.59438 550.025 176.78188 549.1344Q175.985 548.22815 175.985 546.7438L175.985 546.66565ZM177.07875 546.8063Q177.07875 547.85315 177.56313 548.4938Q178.06313 549.1344 178.87563 549.1344Q179.70375 549.1344 180.18813 548.4938Q180.6725 547.8375 180.6725 546.66565Q180.6725 545.6344 180.1725 544.9938Q179.68813 544.3375 178.86 544.3375Q178.06313 544.3375 177.56313 544.97815Q177.07875 545.60315 177.07875 546.8063ZM184.75063 542.025L184.75063 543.5563L185.9225 543.5563L185.9225 544.4L184.75063 544.4L184.75063 548.3219Q184.75063 548.7125 184.90688 548.9Q185.06313 549.0875 185.43813 549.0875Q185.62563 549.0875 185.95375 549.025L185.95375 549.9Q185.53188 550.025 185.12563 550.025Q184.40688 550.025 184.03188 549.5875Q183.65688 549.1344 183.65688 548.3219L183.65688 544.4L182.50063 544.4L182.50063 543.5563L183.65688 543.5563L183.65688 542.025L184.75063 542.025ZM188.75063 542.025L188.75063 543.5563L189.9225 543.5563L189.9225 544.4L188.75063 544.4L188.75063 548.3219Q188.75063 548.7125 188.90688 548.9Q189.06313 549.0875 189.43813 549.0875Q189.62563 549.0875 189.95375 549.025L189.95375 549.9Q189.53188 550.025 189.12563 550.025Q188.40688 550.025 188.03188 549.5875Q187.65688 549.1344 187.65688 548.3219L187.65688 544.4L186.50063 544.4L186.50063 543.5563L187.65688 543.5563L187.65688 542.025L188.75063 542.025ZM192.45375 549.9L191.37563 549.9L191.37563 540.9L192.45375 540.9L192.45375 549.9ZM196.90688 550.025Q195.61 550.025 194.7975 549.1813Q194.00063 548.3219 194.00063 546.9L194.00063 546.7125Q194.00063 545.7594 194.36 545.025Q194.71938 544.275 195.36 543.8688Q196.01625 543.4469 196.76625 543.4469Q198.00063 543.4469 198.68813 544.2594Q199.37563 545.0719 199.37563 546.5875L199.37563 547.04065L195.07875 547.04065Q195.11 547.97815 195.62563 548.5563Q196.15688 549.1344 196.96938 549.1344Q197.53188 549.1344 197.9225 548.9Q198.32875 548.66565 198.64125 548.275L199.2975 548.79065Q198.50063 550.025 196.90688 550.025ZM196.76625 544.3375Q196.11 544.3375 195.65688 544.8219Q195.21938 545.29065 195.12563 546.15L198.2975 546.15L198.2975 546.0719Q198.25063 545.2438 197.84438 544.79065Q197.45375 544.3375 196.76625 544.3375Z" fill-rule="nonzero"/><path fill="#f3f3f3" d="M239.44968 549.1344Q240.0278 549.1344 240.4653 548.79065Q240.9028 548.4313 240.94968 547.9L241.98093 547.9Q241.94968 548.4469 241.5903 548.9469Q241.24655 549.4313 240.66843 549.72815Q240.10593 550.025 239.44968 550.025Q238.1528 550.025 237.38718 549.16565Q236.63718 548.29065 236.63718 546.79065L236.63718 546.60315Q236.63718 545.6813 236.9653 544.9625Q237.30905 544.2438 237.93405 543.85315Q238.57468 543.4469 239.44968 543.4469Q240.51218 543.4469 241.2153 544.0875Q241.93405 544.7125 241.98093 545.7438L240.94968 545.7438Q240.9028 545.1188 240.48093 544.72815Q240.05905 544.3375 239.44968 544.3375Q238.62155 544.3375 238.16843 544.9313Q237.7153 545.525 237.7153 546.65L237.7153 546.85315Q237.7153 547.9469 238.16843 548.54065Q238.62155 549.1344 239.44968 549.1344ZM243.99655 544.3219Q244.7153 543.4469 245.87155 543.4469Q247.88718 543.4469 247.9028 545.7125L247.9028 549.9L246.80905 549.9L246.80905 545.6969Q246.80905 545.025 246.49655 544.6969Q246.19968 544.3688 245.54343 544.3688Q245.01218 544.3688 244.60593 544.65Q244.2153 544.9313 243.99655 545.3844L243.99655 549.9L242.91843 549.9L242.91843 540.9L243.99655 540.9L243.99655 544.3219ZM252.54343 550.025Q251.24655 550.025 250.43405 549.1813Q249.63718 548.3219 249.63718 546.9L249.63718 546.7125Q249.63718 545.7594 249.99655 545.025Q250.35593 544.275 250.99655 543.8688Q251.6528 543.4469 252.4028 543.4469Q253.63718 543.4469 254.32468 544.2594Q255.01218 545.0719 255.01218 546.5875L255.01218 547.04065L250.7153 547.04065Q250.74655 547.97815 251.26218 548.5563Q251.79343 549.1344 252.60593 549.1344Q253.16843 549.1344 253.55905 548.9Q253.9653 548.66565 254.2778 548.275L254.93405 548.79065Q254.13718 550.025 252.54343 550.025ZM252.4028 544.3375Q251.74655 544.3375 251.29343 544.8219Q250.85593 545.29065 250.76218 546.15L253.93405 546.15L253.93405 546.0719Q253.88718 545.2438 253.48093 544.79065Q253.0903 544.3375 252.4028 544.3375ZM258.98093 544.525Q258.73093 544.4938 258.44968 544.4938Q257.37155 544.4938 256.99655 545.4L256.99655 549.9L255.91843 549.9L255.91843 543.5563L256.9653 543.5563L256.98093 544.29065Q257.51218 543.4469 258.49655 543.4469Q258.80905 543.4469 258.98093 543.525L258.98093 544.525ZM262.98093 544.525Q262.73093 544.4938 262.44968 544.4938Q261.37155 544.4938 260.99655 545.4L260.99655 549.9L259.91843 549.9L259.91843 543.5563L260.9653 543.5563L260.98093 544.29065Q261.51218 543.4469 262.49655 543.4469Q262.80905 543.4469 262.98093 543.525L262.98093 544.525ZM265.98093 548.3063L267.4653 543.5563L268.62155 543.5563L266.07468 550.8844Q265.48093 552.4625 264.19968 552.4625L263.98093 552.4469L263.5903 552.3688L263.5903 551.4938L263.87155 551.5094Q264.43405 551.5094 264.73093 551.29065Q265.04343 551.0719 265.24655 550.47815L265.48093 549.8219L263.2153 543.5563L264.4028 543.5563L265.98093 548.3063ZM275.26218 546.8063Q275.26218 548.2438 274.60593 549.1344Q273.94968 550.025 272.80905 550.025Q271.6528 550.025 270.99655 549.29065L270.99655 552.3375L269.91843 552.3375L269.91843 543.5563L270.9028 543.5563L270.94968 544.2594Q271.62155 543.4469 272.79343 543.4469Q273.93405 543.4469 274.5903 544.3063Q275.26218 545.16565 275.26218 546.6969L275.26218 546.8063ZM274.18405 546.6813Q274.18405 545.60315 273.7153 544.9938Q273.26218 544.3688 272.4653 544.3688Q271.48093 544.3688 270.99655 545.22815L270.99655 548.2594Q271.48093 549.1344 272.48093 549.1344Q273.26218 549.1344 273.7153 548.525Q274.18405 547.9 274.18405 546.6813ZM278.98093 548.3063L280.4653 543.5563L281.62155 543.5563L279.07468 550.8844Q278.48093 552.4625 277.19968 552.4625L276.98093 552.4469L276.5903 552.3688L276.5903 551.4938L276.87155 551.5094Q277.43405 551.5094 277.73093 551.29065Q278.04343 551.0719 278.24655 550.47815L278.48093 549.8219L276.2153 543.5563L277.4028 543.5563L278.98093 548.3063Z" fill-rule="nonzero"/><path fill="#f3f3f3" d="M315.78937 546.6813Q315.78937 545.2125 316.47687 544.3375Q317.16437 543.4469 318.28937 543.4469Q319.39874 543.4469 320.055 544.1969L320.055 540.9L321.13312 540.9L321.13312 549.9L320.13312 549.9L320.08624 549.2125Q319.43 550.025 318.27374 550.025Q317.18 550.025 316.47687 549.1188Q315.78937 548.2125 315.78937 546.7594L315.78937 546.6813ZM316.8675 546.8063Q316.8675 547.8844 317.305 548.4938Q317.75812 549.10315 318.53937 549.10315Q319.57062 549.10315 320.055 548.16565L320.055 545.2594Q319.57062 544.3688 318.555 544.3688Q317.75812 544.3688 317.305 544.97815Q316.8675 545.5875 316.8675 546.8063ZM324.16437 543.5563L324.16437 550.6344Q324.16437 552.4625 322.50812 552.4625Q322.14874 552.4625 321.85187 552.35315L321.85187 551.4938Q322.03937 551.54065 322.33624 551.54065Q322.69562 551.54065 322.88312 551.3375Q323.08624 551.15 323.08624 550.65L323.08624 543.5563L324.16437 543.5563ZM322.97687 541.8844Q322.97687 541.6188 323.13312 541.4313Q323.28937 541.2438 323.60187 541.2438Q323.91437 541.2438 324.07062 541.4313Q324.2425 541.6188 324.2425 541.8844Q324.2425 542.1344 324.07062 542.3219Q323.91437 542.4938 323.60187 542.4938Q323.28937 542.4938 323.13312 542.3219Q322.97687 542.1344 322.97687 541.8844ZM329.96124 549.9Q329.8675 549.7125 329.805 549.22815Q329.055 550.025 328.00812 550.025Q327.07062 550.025 326.46124 549.4938Q325.8675 548.9625 325.8675 548.1344Q325.8675 547.15 326.6175 546.60315Q327.3675 546.0563 328.7425 546.0563L329.78937 546.0563L329.78937 545.5563Q329.78937 544.9938 329.44562 544.66565Q329.1175 544.3219 328.44562 544.3219Q327.8675 544.3219 327.47687 544.6188Q327.08624 544.9 327.08624 545.3219L325.9925 545.3219Q325.9925 544.8375 326.32062 544.4Q326.66437 543.9625 327.2425 543.7125Q327.82062 543.4469 328.50812 543.4469Q329.6175 543.4469 330.22687 543.9938Q330.85187 544.54065 330.88312 545.4938L330.88312 548.41565Q330.88312 549.29065 331.10187 549.8063L331.10187 549.9L329.96124 549.9ZM328.16437 549.0719Q328.68 549.0719 329.13312 548.8063Q329.58624 548.54065 329.78937 548.1188L329.78937 546.8219L328.94562 546.8219Q326.94562 546.8219 326.94562 547.9938Q326.94562 548.4938 327.28937 548.79065Q327.63312 549.0719 328.16437 549.0719ZM334.07062 543.5563L334.10187 544.35315Q334.83624 543.4469 336.00812 543.4469Q338.02374 543.4469 338.03937 545.7125L338.03937 549.9L336.94562 549.9L336.94562 545.6969Q336.94562 545.025 336.63312 544.6969Q336.33624 544.3688 335.68 544.3688Q335.14874 544.3688 334.7425 544.65Q334.35187 544.9313 334.13312 545.3844L334.13312 549.9L333.055 549.9L333.055 543.5563L334.07062 543.5563ZM339.78937 546.6813Q339.78937 545.1969 340.47687 544.3219Q341.16437 543.4469 342.28937 543.4469Q343.44562 543.4469 344.10187 544.2594L344.14874 543.5563L345.14874 543.5563L345.14874 549.7438Q345.14874 550.97815 344.41437 551.6813Q343.68 552.4 342.46124 552.4Q341.77374 552.4 341.1175 552.10315Q340.46124 551.8063 340.1175 551.3063L340.68 550.65Q341.3675 551.5094 342.38312 551.5094Q343.16437 551.5094 343.60187 551.0563Q344.055 550.6188 344.055 549.8063L344.055 549.2594Q343.39874 550.025 342.27374 550.025Q341.16437 550.025 340.47687 549.1344Q339.78937 548.22815 339.78937 546.6813ZM340.88312 546.8063Q340.88312 547.8688 341.32062 548.4938Q341.75812 549.10315 342.555 549.10315Q343.57062 549.10315 344.055 548.16565L344.055 545.275Q343.555 544.3688 342.555 544.3688Q341.77374 544.3688 341.32062 544.97815Q340.88312 545.5875 340.88312 546.8063ZM346.75812 546.66565Q346.75812 545.7438 347.1175 544.9938Q347.4925 544.2438 348.14874 543.85315Q348.805 543.4469 349.63312 543.4469Q350.93 543.4469 351.72687 544.3375Q352.53937 545.22815 352.53937 546.72815L352.53937 546.8063Q352.53937 547.72815 352.18 548.4625Q351.82062 549.1969 351.16437 549.6188Q350.50812 550.025 349.64874 550.025Q348.3675 550.025 347.555 549.1344Q346.75812 548.22815 346.75812 546.7438L346.75812 546.66565ZM347.85187 546.8063Q347.85187 547.85315 348.33624 548.4938Q348.83624 549.1344 349.64874 549.1344Q350.47687 549.1344 350.96124 548.4938Q351.44562 547.8375 351.44562 546.66565Q351.44562 545.6344 350.94562 544.9938Q350.46124 544.3375 349.63312 544.3375Q348.83624 544.3375 348.33624 544.97815Q347.85187 545.60315 347.85187 546.8063Z" fill-rule="nonzero"/><path fill="#f3f3f3" d="M393.7228 549.9L393.7228 544.4L392.7228 544.4L392.7228 543.5563L393.7228 543.5563L393.7228 542.91565Q393.7228 541.8844 394.25406 541.3375Q394.80093 540.775 395.80093 540.775Q396.17593 540.775 396.55093 540.8688L396.48843 541.7594Q396.20718 541.6969 395.9103 541.6969Q395.37906 541.6969 395.08218 542.0094Q394.80093 542.3219 394.80093 542.8844L394.80093 543.5563L396.1603 543.5563L396.1603 544.4L394.80093 544.4L394.80093 549.9L393.7228 549.9ZM401.0978 549.9Q401.00406 549.7125 400.94156 549.22815Q400.19156 550.025 399.14468 550.025Q398.20718 550.025 397.5978 549.4938Q397.00406 548.9625 397.00406 548.1344Q397.00406 547.15 397.75406 546.60315Q398.50406 546.0563 399.87906 546.0563L400.92593 546.0563L400.92593 545.5563Q400.92593 544.9938 400.58218 544.66565Q400.25406 544.3219 399.58218 544.3219Q399.00406 544.3219 398.61343 544.6188Q398.2228 544.9 398.2228 545.3219L397.12906 545.3219Q397.12906 544.8375 397.45718 544.4Q397.80093 543.9625 398.37906 543.7125Q398.95718 543.4469 399.64468 543.4469Q400.75406 543.4469 401.36343 543.9938Q401.98843 544.54065 402.01968 545.4938L402.01968 548.41565Q402.01968 549.29065 402.23843 549.8063L402.23843 549.9L401.0978 549.9ZM399.30093 549.0719Q399.81656 549.0719 400.26968 548.8063Q400.7228 548.54065 400.92593 548.1188L400.92593 546.8219L400.08218 546.8219Q398.08218 546.8219 398.08218 547.9938Q398.08218 548.4938 398.42593 548.79065Q398.76968 549.0719 399.30093 549.0719ZM405.36343 549.9L404.2853 549.9L404.2853 540.9L405.36343 540.9L405.36343 549.9ZM409.7228 549.1344Q410.30093 549.1344 410.73843 548.79065Q411.17593 548.4313 411.2228 547.9L412.25406 547.9Q412.2228 548.4469 411.86343 548.9469Q411.51968 549.4313 410.94156 549.72815Q410.37906 550.025 409.7228 550.025Q408.42593 550.025 407.6603 549.16565Q406.9103 548.29065 406.9103 546.79065L406.9103 546.60315Q406.9103 545.6813 407.23843 544.9625Q407.58218 544.2438 408.20718 543.85315Q408.8478 543.4469 409.7228 543.4469Q410.7853 543.4469 411.48843 544.0875Q412.20718 544.7125 412.25406 545.7438L411.2228 545.7438Q411.17593 545.1188 410.75406 544.72815Q410.33218 544.3375 409.7228 544.3375Q408.89468 544.3375 408.44156 544.9313Q407.98843 545.525 407.98843 546.65L407.98843 546.85315Q407.98843 547.9469 408.44156 548.54065Q408.89468 549.1344 409.7228 549.1344ZM412.89468 546.66565Q412.89468 545.7438 413.25406 544.9938Q413.62906 544.2438 414.2853 543.85315Q414.94156 543.4469 415.76968 543.4469Q417.06656 543.4469 417.86343 544.3375Q418.67593 545.22815 418.67593 546.72815L418.67593 546.8063Q418.67593 547.72815 418.31656 548.4625Q417.95718 549.1969 417.30093 549.6188Q416.64468 550.025 415.7853 550.025Q414.50406 550.025 413.69156 549.1344Q412.89468 548.22815 412.89468 546.7438L412.89468 546.66565ZM413.98843 546.8063Q413.98843 547.85315 414.4728 548.4938Q414.9728 549.1344 415.7853 549.1344Q416.61343 549.1344 417.0978 548.4938Q417.58218 547.8375 417.58218 546.66565Q417.58218 545.6344 417.08218 544.9938Q416.5978 544.3375 415.76968 544.3375Q414.9728 544.3375 414.4728 544.97815Q413.98843 545.60315 413.98843 546.8063ZM421.20718 543.5563L421.23843 544.35315Q421.9728 543.4469 423.14468 543.4469Q425.1603 543.4469 425.17593 545.7125L425.17593 549.9L424.08218 549.9L424.08218 545.6969Q424.08218 545.025 423.76968 544.6969Q423.4728 544.3688 422.81656 544.3688Q422.2853 544.3688 421.87906 544.65Q421.48843 544.9313 421.26968 545.3844L421.26968 549.9L420.19156 549.9L420.19156 543.5563L421.20718 543.5563Z" fill-rule="nonzero"/><path fill="#f3f3f3" d="M466.85938 549.9L466.85938 544.4L465.85938 544.4L465.85938 543.5563L466.85938 543.5563L466.85938 542.91565Q466.85938 541.8844 467.39062 541.3375Q467.9375 540.775 468.9375 540.775Q469.3125 540.775 469.6875 540.8688L469.625 541.7594Q469.34375 541.6969 469.04688 541.6969Q468.51562 541.6969 468.21875 542.0094Q467.9375 542.3219 467.9375 542.8844L467.9375 543.5563L469.29688 543.5563L469.29688 544.4L467.9375 544.4L467.9375 549.9L466.85938 549.9ZM474.23438 549.9Q474.14062 549.7125 474.07812 549.22815Q473.32812 550.025 472.28125 550.025Q471.34375 550.025 470.73438 549.4938Q470.14062 548.9625 470.14062 548.1344Q470.14062 547.15 470.89062 546.60315Q471.64062 546.0563 473.01562 546.0563L474.0625 546.0563L474.0625 545.5563Q474.0625 544.9938 473.71875 544.66565Q473.39062 544.3219 472.71875 544.3219Q472.14062 544.3219 471.75 544.6188Q471.35938 544.9 471.35938 545.3219L470.26562 545.3219Q470.26562 544.8375 470.59375 544.4Q470.9375 543.9625 471.51562 543.7125Q472.09375 543.4469 472.78125 543.4469Q473.89062 543.4469 474.5 543.9938Q475.125 544.54065 475.15625 545.4938L475.15625 548.41565Q475.15625 549.29065 475.375 549.8063L475.375 549.9L474.23438 549.9ZM472.4375 549.0719Q472.95312 549.0719 473.40625 548.8063Q473.85938 548.54065 474.0625 548.1188L474.0625 546.8219L473.21875 546.8219Q471.21875 546.8219 471.21875 547.9938Q471.21875 548.4938 471.5625 548.79065Q471.90625 549.0719 472.4375 549.0719ZM481.01562 548.2125Q481.01562 547.775 480.67188 547.54065Q480.34375 547.29065 479.51562 547.1188Q478.70312 546.9469 478.21875 546.6969Q477.73438 546.4469 477.5 546.1188Q477.28125 545.775 477.28125 545.3063Q477.28125 544.525 477.9375 543.9938Q478.59375 543.4469 479.625 543.4469Q480.70312 543.4469 481.35938 544.0094Q482.03125 544.5563 482.03125 545.41565L480.95312 545.41565Q480.95312 544.97815 480.5625 544.66565Q480.1875 544.3375 479.625 544.3375Q479.03125 544.3375 478.6875 544.60315Q478.35938 544.85315 478.35938 545.2594Q478.35938 545.65 478.67188 545.85315Q478.98438 546.0563 479.79688 546.2438Q480.60938 546.41565 481.10938 546.66565Q481.60938 546.91565 481.84375 547.275Q482.09375 547.6344 482.09375 548.1344Q482.09375 548.9938 481.40625 549.5094Q480.73438 550.025 479.65625 550.025Q478.89062 550.025 478.29688 549.7594Q477.71875 549.47815 477.39062 548.9938Q477.0625 548.5094 477.0625 547.9469L478.14062 547.9469Q478.17188 548.4938 478.57812 548.8219Q478.98438 549.1344 479.65625 549.1344Q480.26562 549.1344 480.64062 548.8844Q481.01562 548.6344 481.01562 548.2125ZM484.79688 542.025L484.79688 543.5563L485.96875 543.5563L485.96875 544.4L484.79688 544.4L484.79688 548.3219Q484.79688 548.7125 484.95312 548.9Q485.10938 549.0875 485.48438 549.0875Q485.67188 549.0875 486.0 549.025L486.0 549.9Q485.57812 550.025 485.17188 550.025Q484.45312 550.025 484.07812 549.5875Q483.70312 549.1344 483.70312 548.3219L483.70312 544.4L482.54688 544.4L482.54688 543.5563L483.70312 543.5563L483.70312 542.025L484.79688 542.025ZM491.23438 549.9Q491.14062 549.7125 491.07812 549.22815Q490.32812 550.025 489.28125 550.025Q488.34375 550.025 487.73438 549.4938Q487.14062 548.9625 487.14062 548.1344Q487.14062 547.15 487.89062 546.60315Q488.64062 546.0563 490.01562 546.0563L491.0625 546.0563L491.0625 545.5563Q491.0625 544.9938 490.71875 544.66565Q490.39062 544.3219 489.71875 544.3219Q489.14062 544.3219 488.75 544.6188Q488.35938 544.9 488.35938 545.3219L487.26562 545.3219Q487.26562 544.8375 487.59375 544.4Q487.9375 543.9625 488.51562 543.7125Q489.09375 543.4469 489.78125 543.4469Q490.89062 543.4469 491.5 543.9938Q492.125 544.54065 492.15625 545.4938L492.15625 548.41565Q492.15625 549.29065 492.375 549.8063L492.375 549.9L491.23438 549.9ZM489.4375 549.0719Q489.95312 549.0719 490.40625 548.8063Q490.85938 548.54065 491.0625 548.1188L491.0625 546.8219L490.21875 546.8219Q488.21875 546.8219 488.21875 547.9938Q488.21875 548.4938 488.5625 548.79065Q488.90625 549.0719 489.4375 549.0719ZM499.67188 546.8063Q499.67188 548.2438 499.01562 549.1344Q498.35938 550.025 497.21875 550.025Q496.0625 550.025 495.40625 549.29065L495.40625 552.3375L494.32812 552.3375L494.32812 543.5563L495.3125 543.5563L495.35938 544.2594Q496.03125 543.4469 497.20312 543.4469Q498.34375 543.4469 499.0 544.3063Q499.67188 545.16565 499.67188 546.6969L499.67188 546.8063ZM498.59375 546.6813Q498.59375 545.60315 498.125 544.9938Q497.67188 544.3688 496.875 544.3688Q495.89062 544.3688 495.40625 545.22815L495.40625 548.2594Q495.89062 549.1344 496.89062 549.1344Q497.67188 549.1344 498.125 548.525Q498.59375 547.9 498.59375 546.6813ZM502.5 549.9L501.42188 549.9L501.42188 543.5563L502.5 543.5563L502.5 549.9ZM501.32812 541.8844Q501.32812 541.6188 501.48438 541.4313Q501.65625 541.2438 501.96875 541.2438Q502.28125 541.2438 502.4375 541.4313Q502.60938 541.6188 502.60938 541.8844Q502.60938 542.1344 502.4375 542.3219Q502.28125 542.4938 501.96875 542.4938Q501.65625 542.4938 501.48438 542.3219Q501.32812 542.1344 501.32812 541.8844Z" fill-rule="nonzero"/><path fill="#f3f3f3" d="M547.9959 549.9L547.9959 544.4L546.9959 544.4L546.9959 543.5563L547.9959 543.5563L547.9959 542.91565Q547.9959 541.8844 548.52716 541.3375Q549.07404 540.775 550.07404 540.775Q550.44904 540.775 550.82404 540.8688L550.76154 541.7594Q550.4803 541.6969 550.1834 541.6969Q549.65216 541.6969 549.3553 542.0094Q549.07404 542.3219 549.07404 542.8844L549.07404 543.5563L550.4334 543.5563L550.4334 544.4L549.07404 544.4L549.07404 549.9L547.9959 549.9ZM552.63654 549.9L551.5584 549.9L551.5584 540.9L552.63654 540.9L552.63654 549.9ZM558.3709 549.9Q558.27716 549.7125 558.21466 549.22815Q557.46466 550.025 556.4178 550.025Q555.4803 550.025 554.8709 549.4938Q554.27716 548.9625 554.27716 548.1344Q554.27716 547.15 555.02716 546.60315Q555.77716 546.0563 557.15216 546.0563L558.19904 546.0563L558.19904 545.5563Q558.19904 544.9938 557.8553 544.66565Q557.52716 544.3219 556.8553 544.3219Q556.27716 544.3219 555.88654 544.6188Q555.4959 544.9 555.4959 545.3219L554.40216 545.3219Q554.40216 544.8375 554.7303 544.4Q555.07404 543.9625 555.65216 543.7125Q556.2303 543.4469 556.9178 543.4469Q558.02716 543.4469 558.63654 543.9938Q559.26154 544.54065 559.2928 545.4938L559.2928 548.41565Q559.2928 549.29065 559.51154 549.8063L559.51154 549.9L558.3709 549.9ZM556.57404 549.0719Q557.08966 549.0719 557.5428 548.8063Q557.9959 548.54065 558.19904 548.1188L558.19904 546.8219L557.3553 546.8219Q555.3553 546.8219 555.3553 547.9938Q555.3553 548.4938 555.69904 548.79065Q556.0428 549.0719 556.57404 549.0719ZM565.15216 548.2125Q565.15216 547.775 564.8084 547.54065Q564.4803 547.29065 563.65216 547.1188Q562.83966 546.9469 562.3553 546.6969Q561.8709 546.4469 561.63654 546.1188Q561.4178 545.775 561.4178 545.3063Q561.4178 544.525 562.07404 543.9938Q562.7303 543.4469 563.76154 543.4469Q564.83966 543.4469 565.4959 544.0094Q566.1678 544.5563 566.1678 545.41565L565.08966 545.41565Q565.08966 544.97815 564.69904 544.66565Q564.32404 544.3375 563.76154 544.3375Q563.1678 544.3375 562.82404 544.60315Q562.4959 544.85315 562.4959 545.2594Q562.4959 545.65 562.8084 545.85315Q563.1209 546.0563 563.9334 546.2438Q564.7459 546.41565 565.2459 546.66565Q565.7459 546.91565 565.9803 547.275Q566.2303 547.6344 566.2303 548.1344Q566.2303 548.9938 565.5428 549.5094Q564.8709 550.025 563.7928 550.025Q563.02716 550.025 562.4334 549.7594Q561.8553 549.47815 561.52716 548.9938Q561.19904 548.5094 561.19904 547.9469L562.27716 547.9469Q562.3084 548.4938 562.71466 548.8219Q563.1209 549.1344 563.7928 549.1344Q564.40216 549.1344 564.77716 548.8844Q565.15216 548.6344 565.15216 548.2125ZM569.2303 546.9625L568.5428 547.66565L568.5428 549.9L567.46466 549.9L567.46466 540.9L568.5428 540.9L568.5428 546.3375L569.1209 545.65L571.1053 543.5563L572.4178 543.5563L569.94904 546.2125L572.71466 549.9L571.4334 549.9L569.2303 546.9625Z" fill-rule="nonzero"/><path fill="#f3f3f3" d="M609.28876 548.2125Q609.28876 547.775 608.945 547.54065Q608.6169 547.29065 607.78876 547.1188Q606.97626 546.9469 606.4919 546.6969Q606.0075 546.4469 605.77313 546.1188Q605.5544 545.775 605.5544 545.3063Q605.5544 544.525 606.21063 543.9938Q606.8669 543.4469 607.89813 543.4469Q608.97626 543.4469 609.6325 544.0094Q610.3044 544.5563 610.3044 545.41565L609.22626 545.41565Q609.22626 544.97815 608.83563 544.66565Q608.46063 544.3375 607.89813 544.3375Q607.3044 544.3375 606.96063 544.60315Q606.6325 544.85315 606.6325 545.2594Q606.6325 545.65 606.945 545.85315Q607.2575 546.0563 608.07 546.2438Q608.8825 546.41565 609.3825 546.66565Q609.8825 546.91565 610.1169 547.275Q610.3669 547.6344 610.3669 548.1344Q610.3669 548.9938 609.6794 549.5094Q609.0075 550.025 607.9294 550.025Q607.16376 550.025 606.57 549.7594Q605.9919 549.47815 605.66376 548.9938Q605.33563 548.5094 605.33563 547.9469L606.41376 547.9469Q606.445 548.4938 606.85126 548.8219Q607.2575 549.1344 607.9294 549.1344Q608.53876 549.1344 608.91376 548.8844Q609.28876 548.6344 609.28876 548.2125ZM615.5075 549.9Q615.41376 549.7125 615.35126 549.22815Q614.60126 550.025 613.5544 550.025Q612.6169 550.025 612.0075 549.4938Q611.41376 548.9625 611.41376 548.1344Q611.41376 547.15 612.16376 546.60315Q612.91376 546.0563 614.28876 546.0563L615.33563 546.0563L615.33563 545.5563Q615.33563 544.9938 614.9919 544.66565Q614.66376 544.3219 613.9919 544.3219Q613.41376 544.3219 613.02313 544.6188Q612.6325 544.9 612.6325 545.3219L611.53876 545.3219Q611.53876 544.8375 611.8669 544.4Q612.21063 543.9625 612.78876 543.7125Q613.3669 543.4469 614.0544 543.4469Q615.16376 543.4469 615.77313 543.9938Q616.39813 544.54065 616.4294 545.4938L616.4294 548.41565Q616.4294 549.29065 616.64813 549.8063L616.64813 549.9L615.5075 549.9ZM613.71063 549.0719Q614.22626 549.0719 614.6794 548.8063Q615.1325 548.54065 615.33563 548.1188L615.33563 546.8219L614.4919 546.8219Q612.4919 546.8219 612.4919 547.9938Q612.4919 548.4938 612.83563 548.79065Q613.1794 549.0719 613.71063 549.0719ZM619.6169 543.5563L619.64813 544.35315Q620.3825 543.4469 621.5544 543.4469Q623.57 543.4469 623.58563 545.7125L623.58563 549.9L622.4919 549.9L622.4919 545.6969Q622.4919 545.025 622.1794 544.6969Q621.8825 544.3688 621.22626 544.3688Q620.695 544.3688 620.28876 544.65Q619.89813 544.9313 619.6794 545.3844L619.6794 549.9L618.60126 549.9L618.60126 543.5563L619.6169 543.5563ZM626.77313 549.9L625.695 549.9L625.695 543.5563L626.77313 543.5563L626.77313 549.9ZM625.60126 541.8844Q625.60126 541.6188 625.7575 541.4313Q625.9294 541.2438 626.2419 541.2438Q626.5544 541.2438 626.71063 541.4313Q626.8825 541.6188 626.8825 541.8844Q626.8825 542.1344 626.71063 542.3219Q626.5544 542.4938 626.2419 542.4938Q625.9294 542.4938 625.7575 542.3219Q625.60126 542.1344 625.60126 541.8844ZM631.1325 549.1344Q631.71063 549.1344 632.14813 548.79065Q632.58563 548.4313 632.6325 547.9L633.66376 547.9Q633.6325 548.4469 633.27313 548.9469Q632.9294 549.4313 632.35126 549.72815Q631.78876 550.025 631.1325 550.025Q629.83563 550.025 629.07 549.16565Q628.32 548.29065 628.32 546.79065L628.32 546.60315Q628.32 545.6813 628.64813 544.9625Q628.9919 544.2438 629.6169 543.85315Q630.2575 543.4469 631.1325 543.4469Q632.195 543.4469 632.89813 544.0875Q633.6169 544.7125 633.66376 545.7438L632.6325 545.7438Q632.58563 545.1188 632.16376 544.72815Q631.7419 544.3375 631.1325 544.3375Q630.3044 544.3375 629.85126 544.9313Q629.39813 545.525 629.39813 546.65L629.39813 546.85315Q629.39813 547.9469 629.85126 548.54065Q630.3044 549.1344 631.1325 549.1344ZM640.07 549.9L634.47626 549.9L634.47626 549.1188L637.4294 545.8375Q638.08563 545.0875 638.33563 544.6344Q638.58563 544.16565 638.58563 543.66565Q638.58563 542.9938 638.1794 542.5719Q637.78876 542.1344 637.10126 542.1344Q636.3044 542.1344 635.85126 542.60315Q635.39813 543.0563 635.39813 543.8844L634.32 543.8844Q634.32 542.6969 635.07 541.97815Q635.83563 541.2438 637.10126 541.2438Q638.3044 541.2438 638.9919 541.8688Q639.6794 542.4938 639.6794 543.54065Q639.6794 544.79065 638.07 546.54065L635.78876 549.0094L640.07 549.0094L640.07 549.9ZM646.83563 546.2594Q646.83563 548.16565 646.1794 549.10315Q645.53876 550.025 644.14813 550.025Q642.78876 550.025 642.1325 549.1188Q641.47626 548.2125 641.445 546.4L641.445 544.9625Q641.445 543.0719 642.08563 542.16565Q642.7419 541.2438 644.1325 541.2438Q645.5075 541.2438 646.16376 542.1344Q646.82 543.0094 646.83563 544.85315L646.83563 546.2594ZM645.7419 544.775Q645.7419 543.4 645.35126 542.775Q644.97626 542.1344 644.1325 542.1344Q643.3044 542.1344 642.91376 542.775Q642.53876 543.4 642.53876 544.6969L642.53876 546.4313Q642.53876 547.8063 642.9294 548.47815Q643.33563 549.1344 644.14813 549.1344Q644.945 549.1344 645.33563 548.5094Q645.72626 547.8844 645.7419 546.5563L645.7419 544.775ZM648.6169 549.3375Q648.6169 549.0563 648.77313 548.8688Q648.945 548.6813 649.27313 548.6813Q649.6169 548.6813 649.78876 548.8688Q649.96063 549.0563 649.96063 549.3375Q649.96063 549.60315 649.78876 549.79065Q649.6169 549.9625 649.27313 549.9625Q648.945 549.9625 648.77313 549.79065Q648.6169 549.60315 648.6169 549.3375ZM655.03876 549.9L653.96063 549.9L653.96063 542.6813L651.77313 543.47815L651.77313 542.4938L654.8825 541.3219L655.03876 541.3219L655.03876 549.9ZM664.07 549.9L658.47626 549.9L658.47626 549.1188L661.4294 545.8375Q662.08563 545.0875 662.33563 544.6344Q662.58563 544.16565 662.58563 543.66565Q662.58563 542.9938 662.1794 542.5719Q661.78876 542.1344 661.10126 542.1344Q660.3044 542.1344 659.85126 542.60315Q659.39813 543.0563 659.39813 543.8844L658.32 543.8844Q658.32 542.6969 659.07 541.97815Q659.83563 541.2438 661.10126 541.2438Q662.3044 541.2438 662.9919 541.8688Q663.6794 542.4938 663.6794 543.54065Q663.6794 544.79065 662.07 546.54065L659.78876 549.0094L664.07 549.0094L664.07 549.9Z" fill-rule="nonzero"/><path fill="#f3f3f3" d="M687.9253 548.2125Q687.9253 547.775 687.58154 547.54065Q687.2534 547.29065 686.4253 547.1188Q685.6128 546.9469 685.1284 546.6969Q684.64404 546.4469 684.40967 546.1188Q684.1909 545.775 684.1909 545.3063Q684.1909 544.525 684.84717 543.9938Q685.5034 543.4469 686.53467 543.4469Q687.6128 543.4469 688.26904 544.0094Q688.9409 544.5563 688.9409 545.41565L687.8628 545.41565Q687.8628 544.97815 687.47217 544.66565Q687.09717 544.3375 686.53467 544.3375Q685.9409 544.3375 685.59717 544.60315Q685.26904 544.85315 685.26904 545.2594Q685.26904 545.65 685.58154 545.85315Q685.89404 546.0563 686.70654 546.2438Q687.51904 546.41565 688.01904 546.66565Q688.51904 546.91565 688.7534 547.275Q689.0034 547.6344 689.0034 548.1344Q689.0034 548.9938 688.3159 549.5094Q687.64404 550.025 686.5659 550.025Q685.8003 550.025 685.20654 549.7594Q684.6284 549.47815 684.3003 548.9938Q683.97217 548.5094 683.97217 547.9469L685.0503 547.9469Q685.08154 548.4938 685.4878 548.8219Q685.89404 549.1344 686.5659 549.1344Q687.1753 549.1344 687.5503 548.8844Q687.9253 548.6344 687.9253 548.2125ZM694.14404 549.9Q694.0503 549.7125 693.9878 549.22815Q693.2378 550.025 692.1909 550.025Q691.2534 550.025 690.64404 549.4938Q690.0503 548.9625 690.0503 548.1344Q690.0503 547.15 690.8003 546.60315Q691.5503 546.0563 692.9253 546.0563L693.97217 546.0563L693.97217 545.5563Q693.97217 544.9938 693.6284 544.66565Q693.3003 544.3219 692.6284 544.3219Q692.0503 544.3219 691.65967 544.6188Q691.26904 544.9 691.26904 545.3219L690.1753 545.3219Q690.1753 544.8375 690.5034 544.4Q690.84717 543.9625 691.4253 543.7125Q692.0034 543.4469 692.6909 543.4469Q693.8003 543.4469 694.40967 543.9938Q695.03467 544.54065 695.0659 545.4938L695.0659 548.41565Q695.0659 549.29065 695.28467 549.8063L695.28467 549.9L694.14404 549.9ZM692.34717 549.0719Q692.8628 549.0719 693.3159 548.8063Q693.76904 548.54065 693.97217 548.1188L693.97217 546.8219L693.1284 546.8219Q691.1284 546.8219 691.1284 547.9938Q691.1284 548.4938 691.47217 548.79065Q691.8159 549.0719 692.34717 549.0719ZM698.2534 543.5563L698.28467 544.35315Q699.01904 543.4469 700.1909 543.4469Q702.20654 543.4469 702.22217 545.7125L702.22217 549.9L701.1284 549.9L701.1284 545.6969Q701.1284 545.025 700.8159 544.6969Q700.51904 544.3688 699.8628 544.3688Q699.33154 544.3688 698.9253 544.65Q698.53467 544.9313 698.3159 545.3844L698.3159 549.9L697.2378 549.9L697.2378 543.5563L698.2534 543.5563ZM705.40967 549.9L704.33154 549.9L704.33154 543.5563L705.40967 543.5563L705.40967 549.9ZM704.2378 541.8844Q704.2378 541.6188 704.39404 541.4313Q704.5659 541.2438 704.8784 541.2438Q705.1909 541.2438 705.34717 541.4313Q705.51904 541.6188 705.51904 541.8844Q705.51904 542.1344 705.34717 542.3219Q705.1909 542.4938 704.8784 542.4938Q704.5659 542.4938 704.39404 542.3219Q704.2378 542.1344 704.2378 541.8844ZM709.76904 549.1344Q710.34717 549.1344 710.78467 548.79065Q711.22217 548.4313 711.26904 547.9L712.3003 547.9Q712.26904 548.4469 711.90967 548.9469Q711.5659 549.4313 710.9878 549.72815Q710.4253 550.025 709.76904 550.025Q708.47217 550.025 707.70654 549.16565Q706.95654 548.29065 706.95654 546.79065L706.95654 546.60315Q706.95654 545.6813 707.28467 544.9625Q707.6284 544.2438 708.2534 543.85315Q708.89404 543.4469 709.76904 543.4469Q710.83154 543.4469 711.53467 544.0875Q712.2534 544.7125 712.3003 545.7438L711.26904 545.7438Q711.22217 545.1188 710.8003 544.72815Q710.3784 544.3375 709.76904 544.3375Q708.9409 544.3375 708.4878 544.9313Q708.03467 545.525 708.03467 546.65L708.03467 546.85315Q708.03467 547.9469 708.4878 548.54065Q708.9409 549.1344 709.76904 549.1344ZM718.70654 549.9L713.1128 549.9L713.1128 549.1188L716.0659 545.8375Q716.72217 545.0875 716.97217 544.6344Q717.22217 544.16565 717.22217 543.66565Q717.22217 542.9938 716.8159 542.5719Q716.4253 542.1344 715.7378 542.1344Q714.9409 542.1344 714.4878 542.60315Q714.03467 543.0563 714.03467 543.8844L712.95654 543.8844Q712.95654 542.6969 713.70654 541.97815Q714.47217 541.2438 715.7378 541.2438Q716.9409 541.2438 717.6284 541.8688Q718.3159 542.4938 718.3159 543.54065Q718.3159 544.79065 716.70654 546.54065L714.4253 549.0094L718.70654 549.0094L718.70654 549.9ZM723.6753 549.9L722.59717 549.9L722.59717 542.6813L720.40967 543.47815L720.40967 542.4938L723.51904 541.3219L723.6753 541.3219L723.6753 549.9ZM727.2534 549.3375Q727.2534 549.0563 727.40967 548.8688Q727.58154 548.6813 727.90967 548.6813Q728.2534 548.6813 728.4253 548.8688Q728.59717 549.0563 728.59717 549.3375Q728.59717 549.60315 728.4253 549.79065Q728.2534 549.9625 727.90967 549.9625Q727.58154 549.9625 727.40967 549.79065Q727.2534 549.60315 727.2534 549.3375ZM731.6909 545.10315L732.5034 545.10315Q733.28467 545.0875 733.72217 544.6969Q734.15967 544.3063 734.15967 543.6344Q734.15967 542.1344 732.65967 542.1344Q731.95654 542.1344 731.53467 542.54065Q731.1284 542.9469 731.1284 543.60315L730.03467 543.60315Q730.03467 542.5875 730.76904 541.91565Q731.51904 541.2438 732.65967 541.2438Q733.8628 541.2438 734.5503 541.8844Q735.2378 542.525 735.2378 543.66565Q735.2378 544.22815 734.8784 544.7438Q734.51904 545.2594 733.89404 545.525Q734.59717 545.7438 734.97217 546.2594Q735.3628 546.775 735.3628 547.525Q735.3628 548.66565 734.6128 549.35315Q733.8628 550.025 732.65967 550.025Q731.47217 550.025 730.70654 549.3688Q729.95654 548.7125 729.95654 547.65L731.0503 547.65Q731.0503 548.3219 731.4878 548.72815Q731.9253 549.1344 732.6753 549.1344Q733.45654 549.1344 733.8628 548.72815Q734.28467 548.3063 734.28467 547.54065Q734.28467 546.8063 733.83154 546.41565Q733.3784 546.0094 732.5034 545.9938L731.6909 545.9938L731.6909 545.10315Z" fill-rule="nonzero"/><path fill="#f3f3f3" d="M767.5619 548.2125Q767.5619 547.775 767.21814 547.54065Q766.89 547.29065 766.0619 547.1188Q765.2494 546.9469 764.765 546.6969Q764.28064 546.4469 764.04626 546.1188Q763.8275 545.775 763.8275 545.3063Q763.8275 544.525 764.48376 543.9938Q765.14 543.4469 766.17126 543.4469Q767.2494 543.4469 767.90564 544.0094Q768.5775 544.5563 768.5775 545.41565L767.4994 545.41565Q767.4994 544.97815 767.10876 544.66565Q766.73376 544.3375 766.17126 544.3375Q765.5775 544.3375 765.23376 544.60315Q764.90564 544.85315 764.90564 545.2594Q764.90564 545.65 765.21814 545.85315Q765.53064 546.0563 766.34314 546.2438Q767.15564 546.41565 767.65564 546.66565Q768.15564 546.91565 768.39 547.275Q768.64 547.6344 768.64 548.1344Q768.64 548.9938 767.9525 549.5094Q767.28064 550.025 766.2025 550.025Q765.4369 550.025 764.84314 549.7594Q764.265 549.47815 763.9369 548.9938Q763.60876 548.5094 763.60876 547.9469L764.6869 547.9469Q764.71814 548.4938 765.1244 548.8219Q765.53064 549.1344 766.2025 549.1344Q766.8119 549.1344 767.1869 548.8844Q767.5619 548.6344 767.5619 548.2125ZM771.34314 542.025L771.34314 543.5563L772.515 543.5563L772.515 544.4L771.34314 544.4L771.34314 548.3219Q771.34314 548.7125 771.4994 548.9Q771.65564 549.0875 772.03064 549.0875Q772.21814 549.0875 772.54626 549.025L772.54626 549.9Q772.1244 550.025 771.71814 550.025Q770.9994 550.025 770.6244 549.5875Q770.2494 549.1344 770.2494 548.3219L770.2494 544.4L769.09314 544.4L769.09314 543.5563L770.2494 543.5563L770.2494 542.025L771.34314 542.025ZM777.78064 549.9Q777.6869 549.7125 777.6244 549.22815Q776.8744 550.025 775.8275 550.025Q774.89 550.025 774.28064 549.4938Q773.6869 548.9625 773.6869 548.1344Q773.6869 547.15 774.4369 546.60315Q775.1869 546.0563 776.5619 546.0563L777.60876 546.0563L777.60876 545.5563Q777.60876 544.9938 777.265 544.66565Q776.9369 544.3219 776.265 544.3219Q775.6869 544.3219 775.29626 544.6188Q774.90564 544.9 774.90564 545.3219L773.8119 545.3219Q773.8119 544.8375 774.14 544.4Q774.48376 543.9625 775.0619 543.7125Q775.64 543.4469 776.3275 543.4469Q777.4369 543.4469 778.04626 543.9938Q778.67126 544.54065 778.7025 545.4938L778.7025 548.41565Q778.7025 549.29065 778.92126 549.8063L778.92126 549.9L777.78064 549.9ZM775.98376 549.0719Q776.4994 549.0719 776.9525 548.8063Q777.40564 548.54065 777.60876 548.1188L777.60876 546.8219L776.765 546.8219Q774.765 546.8219 774.765 547.9938Q774.765 548.4938 775.10876 548.79065Q775.4525 549.0719 775.98376 549.0719ZM783.9369 544.525Q783.6869 544.4938 783.40564 544.4938Q782.3275 544.4938 781.9525 545.4L781.9525 549.9L780.8744 549.9L780.8744 543.5563L781.92126 543.5563L781.9369 544.29065Q782.46814 543.4469 783.4525 543.4469Q783.765 543.4469 783.9369 543.525L783.9369 544.525ZM786.04626 549.9L784.96814 549.9L784.96814 540.9L786.04626 540.9L786.04626 549.9ZM790.4994 550.025Q789.2025 550.025 788.39 549.1813Q787.59314 548.3219 787.59314 546.9L787.59314 546.7125Q787.59314 545.7594 787.9525 545.025Q788.3119 544.275 788.9525 543.8688Q789.60876 543.4469 790.35876 543.4469Q791.59314 543.4469 792.28064 544.2594Q792.96814 545.0719 792.96814 546.5875L792.96814 547.04065L788.67126 547.04065Q788.7025 547.97815 789.21814 548.5563Q789.7494 549.1344 790.5619 549.1344Q791.1244 549.1344 791.515 548.9Q791.92126 548.66565 792.23376 548.275L792.89 548.79065Q792.09314 550.025 790.4994 550.025ZM790.35876 544.3375Q789.7025 544.3375 789.2494 544.8219Q788.8119 545.29065 788.71814 546.15L791.89 546.15L791.89 546.0719Q791.84314 545.2438 791.4369 544.79065Q791.04626 544.3375 790.35876 544.3375ZM795.34314 542.025L795.34314 543.5563L796.515 543.5563L796.515 544.4L795.34314 544.4L795.34314 548.3219Q795.34314 548.7125 795.4994 548.9Q795.65564 549.0875 796.03064 549.0875Q796.21814 549.0875 796.54626 549.025L796.54626 549.9Q796.1244 550.025 795.71814 550.025Q794.9994 550.025 794.6244 549.5875Q794.2494 549.1344 794.2494 548.3219L794.2494 544.4L793.09314 544.4L793.09314 543.5563L794.2494 543.5563L794.2494 542.025L795.34314 542.025ZM799.34314 542.025L799.34314 543.5563L800.515 543.5563L800.515 544.4L799.34314 544.4L799.34314 548.3219Q799.34314 548.7125 799.4994 548.9Q799.65564 549.0875 800.03064 549.0875Q800.21814 549.0875 800.54626 549.025L800.54626 549.9Q800.1244 550.025 799.71814 550.025Q798.9994 550.025 798.6244 549.5875Q798.2494 549.1344 798.2494 548.3219L798.2494 544.4L797.09314 544.4L797.09314 543.5563L798.2494 543.5563L798.2494 542.025L799.34314 542.025ZM804.4994 550.025Q803.2025 550.025 802.39 549.1813Q801.59314 548.3219 801.59314 546.9L801.59314 546.7125Q801.59314 545.7594 801.9525 545.025Q802.3119 544.275 802.9525 543.8688Q803.60876 543.4469 804.35876 543.4469Q805.59314 543.4469 806.28064 544.2594Q806.96814 545.0719 806.96814 546.5875L806.96814 547.04065L802.67126 547.04065Q802.7025 547.97815 803.21814 548.5563Q803.7494 549.1344 804.5619 549.1344Q805.1244 549.1344 805.515 548.9Q805.92126 548.66565 806.23376 548.275L806.89 548.79065Q806.09314 550.025 804.4994 550.025ZM804.35876 544.3375Q803.7025 544.3375 803.2494 544.8219Q802.8119 545.29065 802.71814 546.15L805.89 546.15L805.89 546.0719Q805.84314 545.2438 805.4369 544.79065Q805.04626 544.3375 804.35876 544.3375Z" fill-rule="nonzero"/><path fill="#f3f3f3" d="M840.9797 542.025L840.9797 543.5563L842.15155 543.5563L842.15155 544.4L840.9797 544.4L840.9797 548.3219Q840.9797 548.7125 841.1359 548.9Q841.2922 549.0875 841.6672 549.0875Q841.8547 549.0875 842.1828 549.025L842.1828 549.9Q841.7609 550.025 841.3547 550.025Q840.6359 550.025 840.2609 549.5875Q839.8859 549.1344 839.8859 548.3219L839.8859 544.4L838.7297 544.4L838.7297 543.5563L839.8859 543.5563L839.8859 542.025L840.9797 542.025ZM843.21405 546.66565Q843.21405 545.7438 843.5734 544.9938Q843.9484 544.2438 844.6047 543.85315Q845.2609 543.4469 846.08905 543.4469Q847.3859 543.4469 848.1828 544.3375Q848.9953 545.22815 848.9953 546.72815L848.9953 546.8063Q848.9953 547.72815 848.6359 548.4625Q848.27655 549.1969 847.6203 549.6188Q846.96405 550.025 846.1047 550.025Q844.8234 550.025 844.0109 549.1344Q843.21405 548.22815 843.21405 546.7438L843.21405 546.66565ZM844.3078 546.8063Q844.3078 547.85315 844.7922 548.4938Q845.2922 549.1344 846.1047 549.1344Q846.9328 549.1344 847.4172 548.4938Q847.90155 547.8375 847.90155 546.66565Q847.90155 545.6344 847.40155 544.9938Q846.9172 544.3375 846.08905 544.3375Q845.2922 544.3375 844.7922 544.97815Q844.3078 545.60315 844.3078 546.8063ZM853.5734 544.525Q853.3234 544.4938 853.0422 544.4938Q851.96405 544.4938 851.58905 545.4L851.58905 549.9L850.5109 549.9L850.5109 543.5563L851.5578 543.5563L851.5734 544.29065Q852.1047 543.4469 853.08905 543.4469Q853.40155 543.4469 853.5734 543.525L853.5734 544.525ZM855.52655 543.5563L855.5578 544.35315Q856.2922 543.4469 857.46405 543.4469Q859.4797 543.4469 859.4953 545.7125L859.4953 549.9L858.40155 549.9L858.40155 545.6969Q858.40155 545.025 858.08905 544.6969Q857.7922 544.3688 857.1359 544.3688Q856.6047 544.3688 856.1984 544.65Q855.8078 544.9313 855.58905 545.3844L855.58905 549.9L854.5109 549.9L854.5109 543.5563L855.52655 543.5563ZM865.4172 549.9Q865.3234 549.7125 865.2609 549.22815Q864.5109 550.025 863.46405 550.025Q862.52655 550.025 861.9172 549.4938Q861.3234 548.9625 861.3234 548.1344Q861.3234 547.15 862.0734 546.60315Q862.8234 546.0563 864.1984 546.0563L865.2453 546.0563L865.2453 545.5563Q865.2453 544.9938 864.90155 544.66565Q864.5734 544.3219 863.90155 544.3219Q863.3234 544.3219 862.9328 544.6188Q862.5422 544.9 862.5422 545.3219L861.4484 545.3219Q861.4484 544.8375 861.77655 544.4Q862.1203 543.9625 862.6984 543.7125Q863.27655 543.4469 863.96405 543.4469Q865.0734 543.4469 865.6828 543.9938Q866.3078 544.54065 866.33905 545.4938L866.33905 548.41565Q866.33905 549.29065 866.5578 549.8063L866.5578 549.9L865.4172 549.9ZM863.6203 549.0719Q864.1359 549.0719 864.58905 548.8063Q865.0422 548.54065 865.2453 548.1188L865.2453 546.8219L864.40155 546.8219Q862.40155 546.8219 862.40155 547.9938Q862.40155 548.4938 862.7453 548.79065Q863.08905 549.0719 863.6203 549.0719ZM868.2453 546.6813Q868.2453 545.2125 868.9328 544.3375Q869.6203 543.4469 870.7453 543.4469Q871.8547 543.4469 872.5109 544.1969L872.5109 540.9L873.58905 540.9L873.58905 549.9L872.58905 549.9L872.5422 549.2125Q871.8859 550.025 870.7297 550.025Q869.6359 550.025 868.9328 549.1188Q868.2453 548.2125 868.2453 546.7594L868.2453 546.6813ZM869.3234 546.8063Q869.3234 547.8844 869.7609 548.4938Q870.21405 549.10315 870.9953 549.10315Q872.02655 549.10315 872.5109 548.16565L872.5109 545.2594Q872.02655 544.3688 871.0109 544.3688Q870.21405 544.3688 869.7609 544.97815Q869.3234 545.5875 869.3234 546.8063ZM875.21405 546.66565Q875.21405 545.7438 875.5734 544.9938Q875.9484 544.2438 876.6047 543.85315Q877.2609 543.4469 878.08905 543.4469Q879.3859 543.4469 880.1828 544.3375Q880.9953 545.22815 880.9953 546.72815L880.9953 546.8063Q880.9953 547.72815 880.6359 548.4625Q880.27655 549.1969 879.6203 549.6188Q878.96405 550.025 878.1047 550.025Q876.8234 550.025 876.0109 549.1344Q875.21405 548.22815 875.21405 546.7438L875.21405 546.66565ZM876.3078 546.8063Q876.3078 547.85315 876.7922 548.4938Q877.2922 549.1344 878.1047 549.1344Q878.9328 549.1344 879.4172 548.4938Q879.90155 547.8375 879.90155 546.66565Q879.90155 545.6344 879.40155 544.9938Q878.9172 544.3375 878.08905 544.3375Q877.2922 544.3375 876.7922 544.97815Q876.3078 545.60315 876.3078 546.8063Z" fill-rule="nonzero"/><path fill="#f3f3f3" d="M32.63125 42.5375L32.63125 48.1L30.75625 48.1L30.75625 33.88125L35.990623 33.88125Q38.334373 33.88125 39.646873 35.06875Q40.975 36.25625 40.975 38.225Q40.975 40.303123 39.678123 41.428123Q38.38125 42.5375 35.975 42.5375L32.63125 42.5375ZM32.63125 41.00625L35.990623 41.00625Q37.50625 41.00625 38.303123 40.303123Q39.1 39.584373 39.1 38.240623Q39.1 36.975 38.303123 36.225Q37.50625 35.459373 36.1 35.428123L32.63125 35.428123L32.63125 41.00625ZM49.990623 48.1Q49.834373 47.7875 49.740623 46.990623Q48.475 48.303123 46.725 48.303123Q45.1625 48.303123 44.1625 47.4125Q43.1625 46.521873 43.1625 45.1625Q43.1625 43.521873 44.4125 42.615623Q45.678123 41.69375 47.94375 41.69375L49.709373 41.69375L49.709373 40.865623Q49.709373 39.9125 49.13125 39.35Q48.56875 38.7875 47.475 38.7875Q46.50625 38.7875 45.85 39.2875Q45.19375 39.771873 45.19375 40.459373L43.38125 40.459373Q43.38125 39.678123 43.94375 38.94375Q44.50625 38.19375 45.459373 37.771873Q46.428123 37.334373 47.584373 37.334373Q49.4125 37.334373 50.44375 38.25625Q51.475 39.1625 51.521873 40.771873L51.521873 45.63125Q51.521873 47.084373 51.88125 47.94375L51.88125 48.1L49.990623 48.1ZM46.990623 46.725Q47.85 46.725 48.6 46.2875Q49.365623 45.85 49.709373 45.146873L49.709373 42.975L48.2875 42.975Q44.975 42.975 44.975 44.9125Q44.975 45.771873 45.5375 46.25625Q46.1 46.725 46.990623 46.725ZM56.9125 34.975L56.9125 37.5375L58.896873 37.5375L58.896873 38.928123L56.9125 38.928123L56.9125 45.475Q56.9125 46.115623 57.178123 46.44375Q57.44375 46.75625 58.084373 46.75625Q58.396873 46.75625 58.94375 46.63125L58.94375 48.1Q58.225 48.303123 57.553123 48.303123Q56.35 48.303123 55.725 47.56875Q55.115623 46.834373 55.115623 45.475L55.115623 38.928123L53.19375 38.928123L53.19375 37.5375L55.115623 37.5375L55.115623 34.975L56.9125 34.975ZM63.271873 38.81875Q64.475 37.334373 66.39687 37.334373Q69.75625 37.334373 69.77187 41.115623L69.77187 48.1L67.975 48.1L67.975 41.1Q67.95937 39.959373 67.44375 39.4125Q66.94375 38.865623 65.85 38.865623Q64.975 38.865623 64.30312 39.334373Q63.646873 39.803123 63.271873 40.56875L63.271873 48.1L61.475 48.1L61.475 33.1L63.271873 33.1L63.271873 38.81875ZM79.1625 37.5375L79.20937 38.709373Q80.38125 37.334373 82.35 37.334373Q84.56875 37.334373 85.36562 39.0375Q85.89687 38.271873 86.74062 37.803123Q87.58437 37.334373 88.74062 37.334373Q92.20937 37.334373 92.27187 41.021873L92.27187 48.1L90.45937 48.1L90.45937 41.13125Q90.45937 39.990623 89.94375 39.428123Q89.42812 38.865623 88.20937 38.865623Q87.20937 38.865623 86.5375 39.475Q85.88125 40.06875 85.77187 41.084373L85.77187 48.1L83.95937 48.1L83.95937 41.178123Q83.95937 38.865623 81.69375 38.865623Q79.9125 38.865623 79.27187 40.38125L79.27187 48.1L77.45937 48.1L77.45937 37.5375L79.1625 37.5375ZM101.99062 48.1Q101.83437 47.7875 101.74062 46.990623Q100.475 48.303123 98.725 48.303123Q97.1625 48.303123 96.1625 47.4125Q95.1625 46.521873 95.1625 45.1625Q95.1625 43.521873 96.4125 42.615623Q97.67812 41.69375 99.94375 41.69375L101.70937 41.69375L101.70937 40.865623Q101.70937 39.9125 101.13125 39.35Q100.56875 38.7875 99.475 38.7875Q98.50625 38.7875 97.85 39.2875Q97.19375 39.771873 97.19375 40.459373L95.38125 40.459373Q95.38125 39.678123 95.94375 38.94375Q96.50625 38.19375 97.45937 37.771873Q98.42812 37.334373 99.58437 37.334373Q101.4125 37.334373 102.44375 38.25625Q103.475 39.1625 103.52187 40.771873L103.52187 45.63125Q103.52187 47.084373 103.88125 47.94375L103.88125 48.1L101.99062 48.1ZM98.99062 46.725Q99.85 46.725 100.6 46.2875Q101.36562 45.85 101.70937 45.146873L101.70937 42.975L100.2875 42.975Q96.975 42.975 96.975 44.9125Q96.975 45.771873 97.5375 46.25625Q98.1 46.725 98.99062 46.725ZM108.9125 34.975L108.9125 37.5375L110.89687 37.5375L110.89687 38.928123L108.9125 38.928123L108.9125 45.475Q108.9125 46.115623 109.17812 46.44375Q109.44375 46.75625 110.08437 46.75625Q110.39687 46.75625 110.94375 46.63125L110.94375 48.1Q110.225 48.303123 109.55312 48.303123Q108.35 48.303123 107.725 47.56875Q107.11562 46.834373 107.11562 45.475L107.11562 38.928123L105.19375 38.928123L105.19375 37.5375L107.11562 37.5375L107.11562 34.975L108.9125 34.975ZM117.70937 46.81875Q118.67812 46.81875 119.39687 46.240623Q120.11562 45.646873 120.19375 44.771873L121.9125 44.771873Q121.85 45.678123 121.27187 46.50625Q120.70937 47.31875 119.74062 47.81875Q118.7875 48.303123 117.70937 48.303123Q115.55312 48.303123 114.27187 46.865623Q113.00625 45.4125 113.00625 42.9125L113.00625 42.615623Q113.00625 41.06875 113.56875 39.865623Q114.13125 38.6625 115.19375 38.00625Q116.25625 37.334373 117.69375 37.334373Q119.475 37.334373 120.64687 38.396873Q121.83437 39.459373 121.9125 41.1625L120.19375 41.1625Q120.11562 40.146873 119.4125 39.490623Q118.725 38.81875 117.69375 38.81875Q116.31875 38.81875 115.55312 39.81875Q114.80312 40.803123 114.80312 42.678123L114.80312 43.021873Q114.80312 44.85 115.55312 45.834373Q116.30312 46.81875 117.70937 46.81875ZM125.27187 38.81875Q126.475 37.334373 128.39688 37.334373Q131.75626 37.334373 131.77188 41.115623L131.77188 48.1L129.975 48.1L129.975 41.1Q129.95938 39.959373 129.44376 39.4125Q128.94376 38.865623 127.85 38.865623Q126.975 38.865623 126.30312 39.334373Q125.64687 39.803123 125.27187 40.56875L125.27187 48.1L123.475 48.1L123.475 33.1L125.27187 33.1L125.27187 38.81875ZM136.42813 48.1L134.63126 48.1L134.63126 37.5375L136.42813 37.5375L136.42813 48.1ZM134.475 34.725Q134.475 34.2875 134.74063 33.990623Q135.02188 33.678123 135.5375 33.678123Q136.06876 33.678123 136.33438 33.990623Q136.61563 34.2875 136.61563 34.725Q136.61563 35.1625 136.33438 35.459373Q136.06876 35.75625 135.5375 35.75625Q135.02188 35.75625 134.74063 35.459373Q134.475 35.1625 134.475 34.725ZM141.17813 37.5375L141.24063 38.865623Q142.44376 37.334373 144.39688 37.334373Q147.75626 37.334373 147.77188 41.115623L147.77188 48.1L145.975 48.1L145.975 41.1Q145.95938 39.959373 145.44376 39.4125Q144.94376 38.865623 143.85 38.865623Q142.975 38.865623 142.30313 39.334373Q141.64688 39.803123 141.27188 40.56875L141.27188 48.1L139.475 48.1L139.475 37.5375L141.17813 37.5375ZM150.0375 42.725Q150.0375 40.25625 151.17813 38.803123Q152.31876 37.334373 154.20938 37.334373Q156.14688 37.334373 157.225 38.709373L157.31876 37.5375L158.95938 37.5375L158.95938 47.85Q158.95938 49.896873 157.74063 51.06875Q156.5375 52.25625 154.475 52.25625Q153.33438 52.25625 152.24063 51.771873Q151.14688 51.2875 150.56876 50.428123L151.50626 49.35Q152.67813 50.7875 154.35 50.7875Q155.67813 50.7875 156.4125 50.0375Q157.14688 49.303123 157.14688 47.959373L157.14688 47.0375Q156.06876 48.303123 154.19376 48.303123Q152.33438 48.303123 151.17813 46.803123Q150.0375 45.303123 150.0375 42.725ZM151.85 42.928123Q151.85 44.725 152.58438 45.740623Q153.31876 46.75625 154.63126 46.75625Q156.35 46.75625 157.14688 45.209373L157.14688 40.38125Q156.31876 38.865623 154.6625 38.865623Q153.33438 38.865623 152.58438 39.896873Q151.85 40.928123 151.85 42.928123ZM170.85 48.303123Q168.70938 48.303123 167.35 46.896873Q166.00626 45.475 166.00626 43.115623L166.00626 42.771873Q166.00626 41.209373 166.6 39.975Q167.20938 38.740623 168.2875 38.0375Q169.36563 37.334373 170.63126 37.334373Q172.69376 37.334373 173.83438 38.69375Q174.975 40.053123 174.975 42.584373L174.975 43.334373L167.81876 43.334373Q167.85 44.896873 168.725 45.865623Q169.6 46.81875 170.94376 46.81875Q171.9125 46.81875 172.56876 46.428123Q173.24063 46.0375 173.74063 45.396873L174.83438 46.25625Q173.50626 48.303123 170.85 48.303123ZM170.63126 38.81875Q169.5375 38.81875 168.7875 39.615623Q168.05313 40.4125 167.88126 41.85L173.1625 41.85L173.1625 41.709373Q173.08438 40.334373 172.4125 39.584373Q171.75626 38.81875 170.63126 38.81875ZM178.35 48.1L178.35 38.928123L176.69376 38.928123L176.69376 37.5375L178.35 37.5375L178.35 36.44375Q178.35 34.75625 179.25626 33.834373Q180.17813 32.896873 181.83438 32.896873Q182.45938 32.896873 183.06876 33.053123L182.975 34.521873Q182.52188 34.44375 182.00626 34.44375Q181.11563 34.44375 180.63126 34.959373Q180.1625 35.459373 180.1625 36.4125L180.1625 37.5375L182.4125 37.5375L182.4125 38.928123L180.1625 38.928123L180.1625 48.1L178.35 48.1ZM185.35 48.1L185.35 38.928123L183.69376 38.928123L183.69376 37.5375L185.35 37.5375L185.35 36.44375Q185.35 34.75625 186.25626 33.834373Q187.17813 32.896873 188.83438 32.896873Q189.45938 32.896873 190.06876 33.053123L189.975 34.521873Q189.52188 34.44375 189.00626 34.44375Q188.11563 34.44375 187.63126 34.959373Q187.1625 35.459373 187.1625 36.4125L187.1625 37.5375L189.4125 37.5375L189.4125 38.928123L187.1625 38.928123L187.1625 48.1L185.35 48.1ZM193.42813 48.1L191.63126 48.1L191.63126 37.5375L193.42813 37.5375L193.42813 48.1ZM191.475 34.725Q191.475 34.2875 191.74063 33.990623Q192.02188 33.678123 192.5375 33.678123Q193.06876 33.678123 193.33438 33.990623Q193.61563 34.2875 193.61563 34.725Q193.61563 35.1625 193.33438 35.459373Q193.06876 35.75625 192.5375 35.75625Q192.02188 35.75625 191.74063 35.459373Q191.475 35.1625 191.475 34.725ZM200.70938 46.81875Q201.67813 46.81875 202.39688 46.240623Q203.11563 45.646873 203.19376 44.771873L204.9125 44.771873Q204.85 45.678123 204.27188 46.50625Q203.70938 47.31875 202.74063 47.81875Q201.7875 48.303123 200.70938 48.303123Q198.55313 48.303123 197.27188 46.865623Q196.00626 45.4125 196.00626 42.9125L196.00626 42.615623Q196.00626 41.06875 196.56876 39.865623Q197.13126 38.6625 198.19376 38.00625Q199.25626 37.334373 200.69376 37.334373Q202.475 37.334373 203.64688 38.396873Q204.83438 39.459373 204.9125 41.1625L203.19376 41.1625Q203.11563 40.146873 202.4125 39.490623Q201.725 38.81875 200.69376 38.81875Q199.31876 38.81875 198.55313 39.81875Q197.80313 40.803123 197.80313 42.678123L197.80313 43.021873Q197.80313 44.85 198.55313 45.834373Q199.30313 46.81875 200.70938 46.81875ZM208.42813 48.1L206.63126 48.1L206.63126 37.5375L208.42813 37.5375L208.42813 48.1ZM206.475 34.725Q206.475 34.2875 206.74063 33.990623Q207.02188 33.678123 207.5375 33.678123Q208.06876 33.678123 208.33438 33.990623Q208.61563 34.2875 208.61563 34.725Q208.61563 35.1625 208.33438 35.459373Q208.06876 35.75625 207.5375 35.75625Q207.02188 35.75625 206.74063 35.459373Q206.475 35.1625 206.475 34.725ZM215.85 48.303123Q213.70938 48.303123 212.35 46.896873Q211.00626 45.475 211.00626 43.115623L211.00626 42.771873Q211.00626 41.209373 211.6 39.975Q212.20938 38.740623 213.2875 38.0375Q214.36563 37.334373 215.63126 37.334373Q217.69376 37.334373 218.83438 38.69375Q219.975 40.053123 219.975 42.584373L219.975 43.334373L212.81876 43.334373Q212.85 44.896873 213.725 45.865623Q214.6 46.81875 215.94376 46.81875Q216.9125 46.81875 217.56876 46.428123Q218.24063 46.0375 218.74063 45.396873L219.83438 46.25625Q218.50626 48.303123 215.85 48.303123ZM215.63126 38.81875Q214.5375 38.81875 213.7875 39.615623Q213.05313 40.4125 212.88126 41.85L218.1625 41.85L218.1625 41.709373Q218.08438 40.334373 217.4125 39.584373Q216.75626 38.81875 215.63126 38.81875ZM224.17813 37.5375L224.24063 38.865623Q225.44376 37.334373 227.39688 37.334373Q230.75626 37.334373 230.77188 41.115623L230.77188 48.1L228.975 48.1L228.975 41.1Q228.95938 39.959373 228.44376 39.4125Q227.94376 38.865623 226.85 38.865623Q225.975 38.865623 225.30313 39.334373Q224.64688 39.803123 224.27188 40.56875L224.27188 48.1L222.475 48.1L222.475 37.5375L224.17813 37.5375ZM237.70938 46.81875Q238.67813 46.81875 239.39688 46.240623Q240.11563 45.646873 240.19376 44.771873L241.9125 44.771873Q241.85 45.678123 241.27188 46.50625Q240.70938 47.31875 239.74063 47.81875Q238.7875 48.303123 237.70938 48.303123Q235.55313 48.303123 234.27188 46.865623Q233.00626 45.4125 233.00626 42.9125L233.00626 42.615623Q233.00626 41.06875 233.56876 39.865623Q234.13126 38.6625 235.19376 38.00625Q236.25626 37.334373 237.69376 37.334373Q239.475 37.334373 240.64688 38.396873Q241.83438 39.459373 241.9125 41.1625L240.19376 41.1625Q240.11563 40.146873 239.4125 39.490623Q238.725 38.81875 237.69376 38.81875Q236.31876 38.81875 235.55313 39.81875Q234.80313 40.803123 234.80313 42.678123L234.80313 43.021873Q234.80313 44.85 235.55313 45.834373Q236.30313 46.81875 237.70938 46.81875ZM246.92813 45.459373L249.38126 37.5375L251.31876 37.5375L247.06876 49.725Q246.08438 52.365623 243.94376 52.365623L243.6 52.334373L242.92813 52.209373L242.92813 50.740623L243.4125 50.7875Q244.33438 50.7875 244.83438 50.4125Q245.35 50.0375 245.67813 49.053123L246.08438 47.975L242.31876 37.5375L244.2875 37.5375L246.92813 45.459373Z" fill-rule="nonzero"/></svg>