<svg version="1.1" viewBox="0.0 0.0 940.0 582.0" fill="none" stroke="none" stroke-linecap="square" stroke-miterlimit="10" width="940" height="582" xmlns:xlink="http://www.w3.org/1999/xlink" xmlns="http://www.w3.org/2000/svg"><path fill="#2e3440" d="M0 0L940.0 0L940.0 582.0L0 582.0L0 0Z" fill-rule="nonzero"/><path stroke="#626770" stroke-width="1.0" stroke-linecap="butt" d="M79.5 531.5L910.5 531.5" fill-rule="nonzero"/><path stroke="#626770" stroke-width="1.0" stroke-linecap="butt" d="M79.5 392.5L910.5 392.5" fill-rule="nonzero"/><path stroke="#626770" stroke-width="1.0" stroke-linecap="butt" d="M79.5 253.5L910.5 253.5" fill-rule="nonzero"/><path stroke="#626770" stroke-width="1.0" stroke-linecap="butt" d="M79.5 114.5L910.5 114.5" fill-rule="nonzero"/><clipPath id="id_0"><path d="M79.1 114.4L910.9 114.4L910.9 531.9L79.1 531.9L79.1 114.4Z" clip-rule="nonzero"/></clipPath><path stroke="#000000" stroke-width="2.0" stroke-linecap="butt" stroke-opacity="0.0" clip-path="url(#id_0)" d="M317.0 532.0L204.0 532.0L204.0 291.0C204.0 289.89542 204.89543 289.0 206.0 289.0L315.0 289.0C316.10458 289.0 317.0 289.89542 317.0 291.0Z" fill-rule="nonzero"/><path fill="#ff0068" clip-path="url(#id_0)" d="M317.0 532.0L204.0 532.0L204.0 291.0C204.0 289.89542 204.89543 289.0 206.0 289.0L315.0 289.0C316.10458 289.0 317.0 289.89542 317.0 291.0Z" fill-rule="nonzero"/><path stroke="#000000" stroke-width="2.0" stroke-linecap="butt" stroke-opacity="0.0" clip-path="url(#id_0)" d="M671.0 532.0L558.0 532.0L558.0 169.0C558.0 167.89543 558.89545 167.0 560.0 167.0L669.0 167.0C670.10455 167.0 671.0 167.89543 671.0 169.0Z" fill-rule="nonzero"/><path fill="#ff0068" clip-path="url(#id_0)" d="M671.0 532.0L558.0 532.0L558.0 169.0C558.0 167.89543 558.89545 167.0 560.0 167.0L669.0 167.0C670.10455 167.0 671.0 167.89543 671.0 169.0Z" fill-rule="nonzero"/><path stroke="#000000" stroke-width="2.0" stroke-linecap="butt" stroke-opacity="0.0" clip-path="url(#id_0)" d="M432.0 532.0L319.0 532.0L319.0 365.0C319.0 363.89542 319.89542 363.0 321.0 363.0L430.0 363.0C431.10458 363.0 432.0 363.89542 432.0 365.0Z" fill-rule="nonzero"/><path fill="#ff9ac3" clip-path="url(#id_0)" d="M432.0 532.0L319.0 532.0L319.0 365.0C319.0 363.89542 319.89542 363.0 321.0 363.0L430.0 363.0C431.10458 363.0 432.0 363.89542 432.0 365.0Z" fill-rule="nonzero"/><path stroke="#000000" stroke-width="2.0" stroke-linecap="butt" stroke-opacity="0.0" clip-path="url(#id_0)" d="M786.0 532.0L673.0 532.0L673.0 225.0C673.0 223.89543 673.89545 223.0 675.0 223.0L784.0 223.0C785.10455 223.0 786.0 223.89543 786.0 225.0Z" fill-rule="nonzero"/><path fill="#ff9ac3" clip-path="url(#id_0)" d="M786.0 532.0L673.0 532.0L673.0 225.0C673.0 223.89543 673.89545 223.0 675.0 223.0L784.0 223.0C785.10455 223.0 786.0 223.89543 786.0 225.0Z" fill-rule="nonzero"/><path fill="#f3f3f3" d="M33.365623 536.4L32.2875 536.4L32.2875 529.1813L30.1 529.97815L30.1 528.9938L33.209373 527.8219L33.365623 527.8219L33.365623 536.4ZM40.365623 536.4L39.2875 536.4L39.2875 529.1813L37.1 529.97815L37.1 528.9938L40.209373 527.8219L40.365623 527.8219L40.365623 536.4ZM49.1625 532.7594Q49.1625 534.66565 48.50625 535.60315Q47.865623 536.525 46.475 536.525Q45.115623 536.525 44.459373 535.6188Q43.803123 534.7125 43.771873 532.9L43.771873 531.4625Q43.771873 529.5719 44.4125 528.66565Q45.06875 527.7438 46.459373 527.7438Q47.834373 527.7438 48.490623 528.6344Q49.146873 529.5094 49.1625 531.35315L49.1625 532.7594ZM48.06875 531.275Q48.06875 529.9 47.678123 529.275Q47.303123 528.6344 46.459373 528.6344Q45.63125 528.6344 45.240623 529.275Q44.865623 529.9 44.865623 531.1969L44.865623 532.9313Q44.865623 534.3063 45.25625 534.97815Q45.6625 535.6344 46.475 535.6344Q47.271873 535.6344 47.6625 535.0094Q48.053123 534.3844 48.06875 533.0563L48.06875 531.275ZM50.88125 538.10315L50.271873 537.6813Q50.81875 536.91565 50.85 536.0875L50.85 535.1188L51.9125 535.1188L51.9125 535.9625Q51.9125 536.5563 51.615623 537.15Q51.31875 537.7438 50.88125 538.10315ZM58.1625 532.7594Q58.1625 534.66565 57.50625 535.60315Q56.865623 536.525 55.475 536.525Q54.115623 536.525 53.459373 535.6188Q52.803123 534.7125 52.771873 532.9L52.771873 531.4625Q52.771873 529.5719 53.4125 528.66565Q54.06875 527.7438 55.459373 527.7438Q56.834373 527.7438 57.490623 528.6344Q58.146873 529.5094 58.1625 531.35315L58.1625 532.7594ZM57.06875 531.275Q57.06875 529.9 56.678123 529.275Q56.303123 528.6344 55.459373 528.6344Q54.63125 528.6344 54.240623 529.275Q53.865623 529.9 53.865623 531.1969L53.865623 532.9313Q53.865623 534.3063 54.25625 534.97815Q54.6625 535.6344 55.475 535.6344Q56.271873 535.6344 56.6625 535.0094Q57.053123 534.3844 57.06875 533.0563L57.06875 531.275ZM65.1625 532.7594Q65.1625 534.66565 64.50625 535.60315Q63.865623 536.525 62.475 536.525Q61.115623 536.525 60.459373 535.6188Q59.803123 534.7125 59.771873 532.9L59.771873 531.4625Q59.771873 529.5719 60.4125 528.66565Q61.06875 527.7438 62.459373 527.7438Q63.834373 527.7438 64.49062 528.6344Q65.14687 529.5094 65.1625 531.35315L65.1625 532.7594ZM64.06875 531.275Q64.06875 529.9 63.678123 529.275Q63.303123 528.6344 62.459373 528.6344Q61.63125 528.6344 61.240623 529.275Q60.865623 529.9 60.865623 531.1969L60.865623 532.9313Q60.865623 534.3063 61.25625 534.97815Q61.6625 535.6344 62.475 535.6344Q63.271873 535.6344 63.6625 535.0094Q64.05312 534.3844 64.06875 533.0563L64.06875 531.275ZM72.1625 532.7594Q72.1625 534.66565 71.50625 535.60315Q70.86562 536.525 69.475 536.525Q68.11562 536.525 67.45937 535.6188Q66.80312 534.7125 66.77187 532.9L66.77187 531.4625Q66.77187 529.5719 67.4125 528.66565Q68.06875 527.7438 69.45937 527.7438Q70.83437 527.7438 71.49062 528.6344Q72.14687 529.5094 72.1625 531.35315L72.1625 532.7594ZM71.06875 531.275Q71.06875 529.9 70.67812 529.275Q70.30312 528.6344 69.45937 528.6344Q68.63125 528.6344 68.24062 529.275Q67.86562 529.9 67.86562 531.1969L67.86562 532.9313Q67.86562 534.3063 68.25625 534.97815Q68.6625 535.6344 69.475 535.6344Q70.27187 535.6344 70.6625 535.0094Q71.05312 534.3844 71.06875 533.0563L71.06875 531.275Z" fill-rule="nonzero"/><path fill="#f3f3f3" d="M33.365623 397.23334L32.2875 397.23334L32.2875 390.0146L30.1 390.81146L30.1 389.8271L33.209373 388.6552L33.365623 388.6552L33.365623 397.23334ZM42.396873 397.23334L36.803123 397.23334L36.803123 396.4521L39.75625 393.17084Q40.4125 392.42084 40.6625 391.9677Q40.9125 391.49896 40.9125 390.99896Q40.9125 390.3271 40.50625 389.9052Q40.115623 389.4677 39.428123 389.4677Q38.63125 389.4677 38.178123 389.93646Q37.725 390.3896 37.725 391.2177L36.646873 391.2177Q36.646873 390.0302 37.396873 389.31146Q38.1625 388.5771 39.428123 388.5771Q40.63125 388.5771 41.31875 389.2021Q42.00625 389.8271 42.00625 390.87396Q42.00625 392.12396 40.396873 393.87396L38.115623 396.3427L42.396873 396.3427L42.396873 397.23334ZM49.1625 393.5927Q49.1625 395.49896 48.50625 396.43646Q47.865623 397.35834 46.475 397.35834Q45.115623 397.35834 44.459373 396.4521Q43.803123 395.54584 43.771873 393.73334L43.771873 392.29584Q43.771873 390.4052 44.4125 389.49896Q45.06875 388.5771 46.459373 388.5771Q47.834373 388.5771 48.490623 389.4677Q49.146873 390.3427 49.1625 392.18646L49.1625 393.5927ZM48.06875 392.10834Q48.06875 390.73334 47.678123 390.10834Q47.303123 389.4677 46.459373 389.4677Q45.63125 389.4677 45.240623 390.10834Q44.865623 390.73334 44.865623 392.0302L44.865623 393.7646Q44.865623 395.1396 45.25625 395.81146Q45.6625 396.4677 46.475 396.4677Q47.271873 396.4677 47.6625 395.8427Q48.053123 395.2177 48.06875 393.8896L48.06875 392.10834ZM50.88125 398.93646L50.271873 398.5146Q50.81875 397.74896 50.85 396.92084L50.85 395.9521L51.9125 395.9521L51.9125 396.79584Q51.9125 397.3896 51.615623 397.98334Q51.31875 398.5771 50.88125 398.93646ZM58.1625 393.5927Q58.1625 395.49896 57.50625 396.43646Q56.865623 397.35834 55.475 397.35834Q54.115623 397.35834 53.459373 396.4521Q52.803123 395.54584 52.771873 393.73334L52.771873 392.29584Q52.771873 390.4052 53.4125 389.49896Q54.06875 388.5771 55.459373 388.5771Q56.834373 388.5771 57.490623 389.4677Q58.146873 390.3427 58.1625 392.18646L58.1625 393.5927ZM57.06875 392.10834Q57.06875 390.73334 56.678123 390.10834Q56.303123 389.4677 55.459373 389.4677Q54.63125 389.4677 54.240623 390.10834Q53.865623 390.73334 53.865623 392.0302L53.865623 393.7646Q53.865623 395.1396 54.25625 395.81146Q54.6625 396.4677 55.475 396.4677Q56.271873 396.4677 56.6625 395.8427Q57.053123 395.2177 57.06875 393.8896L57.06875 392.10834ZM65.1625 393.5927Q65.1625 395.49896 64.50625 396.43646Q63.865623 397.35834 62.475 397.35834Q61.115623 397.35834 60.459373 396.4521Q59.803123 395.54584 59.771873 393.73334L59.771873 392.29584Q59.771873 390.4052 60.4125 389.49896Q61.06875 388.5771 62.459373 388.5771Q63.834373 388.5771 64.49062 389.4677Q65.14687 390.3427 65.1625 392.18646L65.1625 393.5927ZM64.06875 392.10834Q64.06875 390.73334 63.678123 390.10834Q63.303123 389.4677 62.459373 389.4677Q61.63125 389.4677 61.240623 390.10834Q60.865623 390.73334 60.865623 392.0302L60.865623 393.7646Q60.865623 395.1396 61.25625 395.81146Q61.6625 396.4677 62.475 396.4677Q63.271873 396.4677 63.6625 395.8427Q64.05312 395.2177 64.06875 393.8896L64.06875 392.10834ZM72.1625 393.5927Q72.1625 395.49896 71.50625 396.43646Q70.86562 397.35834 69.475 397.35834Q68.11562 397.35834 67.45937 396.4521Q66.80312 395.54584 66.77187 393.73334L66.77187 392.29584Q66.77187 390.4052 67.4125 389.49896Q68.06875 388.5771 69.45937 388.5771Q70.83437 388.5771 71.49062 389.4677Q72.14687 390.3427 72.1625 392.18646L72.1625 393.5927ZM71.06875 392.10834Q71.06875 390.73334 70.67812 390.10834Q70.30312 389.4677 69.45937 389.4677Q68.63125 389.4677 68.24062 390.10834Q67.86562 390.73334 67.86562 392.0302L67.86562 393.7646Q67.86562 395.1396 68.25625 395.81146Q68.6625 396.4677 69.475 396.4677Q70.27187 396.4677 70.6625 395.8427Q71.05312 395.2177 71.06875 393.8896L71.06875 392.10834Z" fill-rule="nonzero"/><path fill="#f3f3f3" d="M33.365623 258.06668L32.2875 258.06668L32.2875 250.84793L30.1 251.6448L30.1 250.66043L33.209373 249.48856L33.365623 249.48856L33.365623 258.06668ZM38.38125 253.2698L39.19375 253.2698Q39.975 253.25418 40.4125 252.86356Q40.85 252.47293 40.85 251.80106Q40.85 250.30106 39.35 250.30106Q38.646873 250.30106 38.225 250.7073Q37.81875 251.11356 37.81875 251.7698L36.725 251.7698Q36.725 250.75418 37.459373 250.0823Q38.209373 249.41043 39.35 249.41043Q40.553123 249.41043 41.240623 250.05106Q41.928123 250.69168 41.928123 251.8323Q41.928123 252.3948 41.56875 252.91043Q41.209373 253.42606 40.584373 253.69168Q41.2875 253.91043 41.6625 254.42606Q42.053123 254.94168 42.053123 255.69168Q42.053123 256.8323 41.303123 257.5198Q40.553123 258.19168 39.35 258.19168Q38.1625 258.19168 37.396873 257.53543Q36.646873 256.87918 36.646873 255.81668L37.740623 255.81668Q37.740623 256.48856 38.178123 256.8948Q38.615623 257.30106 39.365623 257.30106Q40.146873 257.30106 40.553123 256.8948Q40.975 256.47293 40.975 255.7073Q40.975 254.97293 40.521873 254.5823Q40.06875 254.17606 39.19375 254.16043L38.38125 254.16043L38.38125 253.2698ZM49.1625 254.42606Q49.1625 256.3323 48.50625 257.2698Q47.865623 258.19168 46.475 258.19168Q45.115623 258.19168 44.459373 257.28543Q43.803123 256.37918 43.771873 254.56668L43.771873 253.12918Q43.771873 251.23856 44.4125 250.3323Q45.06875 249.41043 46.459373 249.41043Q47.834373 249.41043 48.490623 250.30106Q49.146873 251.17606 49.1625 253.0198L49.1625 254.42606ZM48.06875 252.94168Q48.06875 251.56668 47.678123 250.94168Q47.303123 250.30106 46.459373 250.30106Q45.63125 250.30106 45.240623 250.94168Q44.865623 251.56668 44.865623 252.86356L44.865623 254.59793Q44.865623 255.97293 45.25625 256.6448Q45.6625 257.30106 46.475 257.30106Q47.271873 257.30106 47.6625 256.67606Q48.053123 256.05106 48.06875 254.72293L48.06875 252.94168ZM50.88125 259.7698L50.271873 259.34793Q50.81875 258.5823 50.85 257.75418L50.85 256.78543L51.9125 256.78543L51.9125 257.62918Q51.9125 258.22293 51.615623 258.81668Q51.31875 259.41043 50.88125 259.7698ZM58.1625 254.42606Q58.1625 256.3323 57.50625 257.2698Q56.865623 258.19168 55.475 258.19168Q54.115623 258.19168 53.459373 257.28543Q52.803123 256.37918 52.771873 254.56668L52.771873 253.12918Q52.771873 251.23856 53.4125 250.3323Q54.06875 249.41043 55.459373 249.41043Q56.834373 249.41043 57.490623 250.30106Q58.146873 251.17606 58.1625 253.0198L58.1625 254.42606ZM57.06875 252.94168Q57.06875 251.56668 56.678123 250.94168Q56.303123 250.30106 55.459373 250.30106Q54.63125 250.30106 54.240623 250.94168Q53.865623 251.56668 53.865623 252.86356L53.865623 254.59793Q53.865623 255.97293 54.25625 256.6448Q54.6625 257.30106 55.475 257.30106Q56.271873 257.30106 56.6625 256.67606Q57.053123 256.05106 57.06875 254.72293L57.06875 252.94168ZM65.1625 254.42606Q65.1625 256.3323 64.50625 257.2698Q63.865623 258.19168 62.475 258.19168Q61.115623 258.19168 60.459373 257.28543Q59.803123 256.37918 59.771873 254.56668L59.771873 253.12918Q59.771873 251.23856 60.4125 250.3323Q61.06875 249.41043 62.459373 249.41043Q63.834373 249.41043 64.49062 250.30106Q65.14687 251.17606 65.1625 253.0198L65.1625 254.42606ZM64.06875 252.94168Q64.06875 251.56668 63.678123 250.94168Q63.303123 250.30106 62.459373 250.30106Q61.63125 250.30106 61.240623 250.94168Q60.865623 251.56668 60.865623 252.86356L60.865623 254.59793Q60.865623 255.97293 61.25625 256.6448Q61.6625 257.30106 62.475 257.30106Q63.271873 257.30106 63.6625 256.67606Q64.05312 256.05106 64.06875 254.72293L64.06875 252.94168ZM72.1625 254.42606Q72.1625 256.3323 71.50625 257.2698Q70.86562 258.19168 69.475 258.19168Q68.11562 258.19168 67.45937 257.28543Q66.80312 256.37918 66.77187 254.56668L66.77187 253.12918Q66.77187 251.23856 67.4125 250.3323Q68.06875 249.41043 69.45937 249.41043Q70.83437 249.41043 71.49062 250.30106Q72.14687 251.17606 72.1625 253.0198L72.1625 254.42606ZM71.06875 252.94168Q71.06875 251.56668 70.67812 250.94168Q70.30312 250.30106 69.45937 250.30106Q68.63125 250.30106 68.24062 250.94168Q67.86562 251.56668 67.86562 252.86356L67.86562 254.59793Q67.86562 255.97293 68.25625 256.6448Q68.6625 257.30106 69.475 257.30106Q70.27187 257.30106 70.6625 256.67606Q71.05312 256.05106 71.06875 254.72293L71.06875 252.94168Z" fill-rule="nonzero"/><path fill="#f3f3f3" d="M33.365623 118.9L32.2875 118.9L32.2875 111.68125L30.1 112.47813L30.1 111.49375L33.209373 110.32188L33.365623 110.32188L33.365623 118.9ZM41.38125 116.04063L42.56875 116.04063L42.56875 116.91563L41.38125 116.91563L41.38125 118.9L40.303123 118.9L40.303123 116.91563L36.4125 116.91563L36.4125 116.275L40.225 110.36875L41.38125 110.36875L41.38125 116.04063ZM37.646873 116.04063L40.303123 116.04063L40.303123 111.85313L40.1625 112.0875L37.646873 116.04063ZM49.1625 115.25938Q49.1625 117.16563 48.50625 118.10313Q47.865623 119.025 46.475 119.025Q45.115623 119.025 44.459373 118.11875Q43.803123 117.2125 43.771873 115.4L43.771873 113.9625Q43.771873 112.07188 44.4125 111.16563Q45.06875 110.24375 46.459373 110.24375Q47.834373 110.24375 48.490623 111.13438Q49.146873 112.00938 49.1625 113.85313L49.1625 115.25938ZM48.06875 113.775Q48.06875 112.4 47.678123 111.775Q47.303123 111.13438 46.459373 111.13438Q45.63125 111.13438 45.240623 111.775Q44.865623 112.4 44.865623 113.69688L44.865623 115.43125Q44.865623 116.80625 45.25625 117.47813Q45.6625 118.13438 46.475 118.13438Q47.271873 118.13438 47.6625 117.50938Q48.053123 116.88438 48.06875 115.55625L48.06875 113.775ZM50.88125 120.60313L50.271873 120.18125Q50.81875 119.41563 50.85 118.5875L50.85 117.61875L51.9125 117.61875L51.9125 118.4625Q51.9125 119.05625 51.615623 119.65Q51.31875 120.24375 50.88125 120.60313ZM58.1625 115.25938Q58.1625 117.16563 57.50625 118.10313Q56.865623 119.025 55.475 119.025Q54.115623 119.025 53.459373 118.11875Q52.803123 117.2125 52.771873 115.4L52.771873 113.9625Q52.771873 112.07188 53.4125 111.16563Q54.06875 110.24375 55.459373 110.24375Q56.834373 110.24375 57.490623 111.13438Q58.146873 112.00938 58.1625 113.85313L58.1625 115.25938ZM57.06875 113.775Q57.06875 112.4 56.678123 111.775Q56.303123 111.13438 55.459373 111.13438Q54.63125 111.13438 54.240623 111.775Q53.865623 112.4 53.865623 113.69688L53.865623 115.43125Q53.865623 116.80625 54.25625 117.47813Q54.6625 118.13438 55.475 118.13438Q56.271873 118.13438 56.6625 117.50938Q57.053123 116.88438 57.06875 115.55625L57.06875 113.775ZM65.1625 115.25938Q65.1625 117.16563 64.50625 118.10313Q63.865623 119.025 62.475 119.025Q61.115623 119.025 60.459373 118.11875Q59.803123 117.2125 59.771873 115.4L59.771873 113.9625Q59.771873 112.07188 60.4125 111.16563Q61.06875 110.24375 62.459373 110.24375Q63.834373 110.24375 64.49062 111.13438Q65.14687 112.00938 65.1625 113.85313L65.1625 115.25938ZM64.06875 113.775Q64.06875 112.4 63.678123 111.775Q63.303123 111.13438 62.459373 111.13438Q61.63125 111.13438 61.240623 111.775Q60.865623 112.4 60.865623 113.69688L60.865623 115.43125Q60.865623 116.80625 61.25625 117.47813Q61.6625 118.13438 62.475 118.13438Q63.271873 118.13438 63.6625 117.50938Q64.05312 116.88438 64.06875 115.55625L64.06875 113.775ZM72.1625 115.25938Q72.1625 117.16563 71.50625 118.10313Q70.86562 119.025 69.475 119.025Q68.11562 119.025 67.45937 118.11875Q66.80312 117.2125 66.77187 115.4L66.77187 113.9625Q66.77187 112.07188 67.4125 111.16563Q68.06875 110.24375 69.45937 110.24375Q70.83437 110.24375 71.49062 111.13438Q72.14687 112.00938 72.1625 113.85313L72.1625 115.25938ZM71.06875 113.775Q71.06875 112.4 70.67812 111.775Q70.30312 111.13438 69.45937 111.13438Q68.63125 111.13438 68.24062 111.775Q67.86562 112.4 67.86562 113.69688L67.86562 115.43125Q67.86562 116.80625 68.25625 117.47813Q68.6625 118.13438 69.475 118.13438Q70.27187 118.13438 70.6625 117.50938Q71.05312 116.88438 71.06875 115.55625L71.06875 113.775Z" fill-rule="nonzero"/><path fill="#f3f3f3" d="M292.5369 548.2125Q292.5369 547.775 292.19315 547.54065Q291.86502 547.29065 291.0369 547.1188Q290.2244 546.9469 289.74002 546.6969Q289.25565 546.4469 289.02127 546.1188Q288.80252 545.775 288.80252 545.3063Q288.80252 544.525 289.45877 543.9938Q290.11502 543.4469 291.14627 543.4469Q292.2244 543.4469 292.88065 544.0094Q293.55252 544.5563 293.55252 545.41565L292.4744 545.41565Q292.4744 544.97815 292.08377 544.66565Q291.70877 544.3375 291.14627 544.3375Q290.55252 544.3375 290.20877 544.60315Q289.88065 544.85315 289.88065 545.2594Q289.88065 545.65 290.19315 545.85315Q290.50565 546.0563 291.31815 546.2438Q292.13065 546.41565 292.63065 546.66565Q293.13065 546.91565 293.36502 547.275Q293.61502 547.6344 293.61502 548.1344Q293.61502 548.9938 292.92752 549.5094Q292.25565 550.025 291.17752 550.025Q290.4119 550.025 289.81815 549.7594Q289.24002 549.47815 288.9119 548.9938Q288.58377 548.5094 288.58377 547.9469L289.6619 547.9469Q289.69315 548.4938 290.0994 548.8219Q290.50565 549.1344 291.17752 549.1344Q291.7869 549.1344 292.1619 548.8844Q292.5369 548.6344 292.5369 548.2125ZM298.75565 549.9Q298.6619 549.7125 298.5994 549.22815Q297.8494 550.025 296.80252 550.025Q295.86502 550.025 295.25565 549.4938Q294.6619 548.9625 294.6619 548.1344Q294.6619 547.15 295.4119 546.60315Q296.1619 546.0563 297.5369 546.0563L298.58377 546.0563L298.58377 545.5563Q298.58377 544.9938 298.24002 544.66565Q297.9119 544.3219 297.24002 544.3219Q296.6619 544.3219 296.27127 544.6188Q295.88065 544.9 295.88065 545.3219L294.7869 545.3219Q294.7869 544.8375 295.11502 544.4Q295.45877 543.9625 296.0369 543.7125Q296.61502 543.4469 297.30252 543.4469Q298.4119 543.4469 299.02127 543.9938Q299.64627 544.54065 299.67752 545.4938L299.67752 548.41565Q299.67752 549.29065 299.89627 549.8063L299.89627 549.9L298.75565 549.9ZM296.95877 549.0719Q297.4744 549.0719 297.92752 548.8063Q298.38065 548.54065 298.58377 548.1188L298.58377 546.8219L297.74002 546.8219Q295.74002 546.8219 295.74002 547.9938Q295.74002 548.4938 296.08377 548.79065Q296.42752 549.0719 296.95877 549.0719ZM302.86502 543.5563L302.89627 544.35315Q303.63065 543.4469 304.80252 543.4469Q306.81815 543.4469 306.83377 545.7125L306.83377 549.9L305.74002 549.9L305.74002 545.6969Q305.74002 545.025 305.42752 544.6969Q305.13065 544.3688 304.4744 544.3688Q303.94315 544.3688 303.5369 544.65Q303.14627 544.9313 302.92752 545.3844L302.92752 549.9L301.8494 549.9L301.8494 543.5563L302.86502 543.5563ZM310.02127 549.9L308.94315 549.9L308.94315 543.5563L310.02127 543.5563L310.02127 549.9ZM308.8494 541.8844Q308.8494 541.6188 309.00565 541.4313Q309.17752 541.2438 309.49002 541.2438Q309.80252 541.2438 309.95877 541.4313Q310.13065 541.6188 310.13065 541.8844Q310.13065 542.1344 309.95877 542.3219Q309.80252 542.4938 309.49002 542.4938Q309.17752 542.4938 309.00565 542.3219Q308.8494 542.1344 308.8494 541.8844ZM314.38065 549.1344Q314.95877 549.1344 315.39627 548.79065Q315.83377 548.4313 315.88065 547.9L316.9119 547.9Q316.88065 548.4469 316.52127 548.9469Q316.17752 549.4313 315.5994 549.72815Q315.0369 550.025 314.38065 550.025Q313.08377 550.025 312.31815 549.16565Q311.56815 548.29065 311.56815 546.79065L311.56815 546.60315Q311.56815 545.6813 311.89627 544.9625Q312.24002 544.2438 312.86502 543.85315Q313.50565 543.4469 314.38065 543.4469Q315.44315 543.4469 316.14627 544.0875Q316.86502 544.7125 316.9119 545.7438L315.88065 545.7438Q315.83377 545.1188 315.4119 544.72815Q314.99002 544.3375 314.38065 544.3375Q313.55252 544.3375 313.0994 544.9313Q312.64627 545.525 312.64627 546.65L312.64627 546.85315Q312.64627 547.9469 313.0994 548.54065Q313.55252 549.1344 314.38065 549.1344ZM323.31815 549.9L317.7244 549.9L317.7244 549.1188L320.67752 545.8375Q321.33377 545.0875 321.58377 544.6344Q321.83377 544.16565 321.83377 543.66565Q321.83377 542.9938 321.42752 542.5719Q321.0369 542.1344 320.3494 542.1344Q319.55252 542.1344 319.0994 542.60315Q318.64627 543.0563 318.64627 543.8844L317.56815 543.8844Q317.56815 542.6969 318.31815 541.97815Q319.08377 541.2438 320.3494 541.2438Q321.55252 541.2438 322.24002 541.8688Q322.92752 542.4938 322.92752 543.54065Q322.92752 544.79065 321.31815 546.54065L319.0369 549.0094L323.31815 549.0094L323.31815 549.9ZM330.08377 546.2594Q330.08377 548.16565 329.42752 549.10315Q328.7869 550.025 327.39627 550.025Q326.0369 550.025 325.38065 549.1188Q324.7244 548.2125 324.69315 546.4L324.69315 544.9625Q324.69315 543.0719 325.33377 542.16565Q325.99002 541.2438 327.38065 541.2438Q328.75565 541.2438 329.4119 542.1344Q330.06815 543.0094 330.08377 544.85315L330.08377 546.2594ZM328.99002 544.775Q328.99002 543.4 328.5994 542.775Q328.2244 542.1344 327.38065 542.1344Q326.55252 542.1344 326.1619 542.775Q325.7869 543.4 325.7869 544.6969L325.7869 546.4313Q325.7869 547.8063 326.17752 548.47815Q326.58377 549.1344 327.39627 549.1344Q328.19315 549.1344 328.58377 548.5094Q328.9744 547.8844 328.99002 546.5563L328.99002 544.775ZM331.86502 549.3375Q331.86502 549.0563 332.02127 548.8688Q332.19315 548.6813 332.52127 548.6813Q332.86502 548.6813 333.0369 548.8688Q333.20877 549.0563 333.20877 549.3375Q333.20877 549.60315 333.0369 549.79065Q332.86502 549.9625 332.52127 549.9625Q332.19315 549.9625 332.02127 549.79065Q331.86502 549.60315 331.86502 549.3375ZM338.2869 549.9L337.20877 549.9L337.20877 542.6813L335.02127 543.47815L335.02127 542.4938L338.13065 541.3219L338.2869 541.3219L338.2869 549.9ZM347.31815 549.9L341.7244 549.9L341.7244 549.1188L344.67752 545.8375Q345.33377 545.0875 345.58377 544.6344Q345.83377 544.16565 345.83377 543.66565Q345.83377 542.9938 345.42752 542.5719Q345.0369 542.1344 344.3494 542.1344Q343.55252 542.1344 343.0994 542.60315Q342.64627 543.0563 342.64627 543.8844L341.56815 543.8844Q341.56815 542.6969 342.31815 541.97815Q343.08377 541.2438 344.3494 541.2438Q345.55252 541.2438 346.24002 541.8688Q346.92752 542.4938 346.92752 543.54065Q346.92752 544.79065 345.31815 546.54065L343.0369 549.0094L347.31815 549.0094L347.31815 549.9Z" fill-rule="nonzero"/><path fill="#f3f3f3" d="M649.9943 548.2125Q649.9943 547.775 649.6506 547.54065Q649.32245 547.29065 648.4943 547.1188Q647.6818 546.9469 647.19745 546.6969Q646.7131 546.4469 646.4787 546.1188Q646.25995 545.775 646.25995 545.3063Q646.25995 544.525 646.9162 543.9938Q647.57245 543.4469 648.6037 543.4469Q649.6818 543.4469 650.3381 544.0094Q651.00995 544.5563 651.00995 545.41565L649.9318 545.41565Q649.9318 544.97815 649.5412 544.66565Q649.1662 544.3375 648.6037 544.3375Q648.00995 544.3375 647.6662 544.60315Q647.3381 544.85315 647.3381 545.2594Q647.3381 545.65 647.6506 545.85315Q647.9631 546.0563 648.7756 546.2438Q649.5881 546.41565 650.0881 546.66565Q650.5881 546.91565 650.82245 547.275Q651.07245 547.6344 651.07245 548.1344Q651.07245 548.9938 650.38495 549.5094Q649.7131 550.025 648.63495 550.025Q647.8693 550.025 647.2756 549.7594Q646.69745 549.47815 646.3693 548.9938Q646.0412 548.5094 646.0412 547.9469L647.1193 547.9469Q647.1506 548.4938 647.5568 548.8219Q647.9631 549.1344 648.63495 549.1344Q649.2443 549.1344 649.6193 548.8844Q649.9943 548.6344 649.9943 548.2125ZM656.2131 549.9Q656.1193 549.7125 656.0568 549.22815Q655.3068 550.025 654.25995 550.025Q653.32245 550.025 652.7131 549.4938Q652.1193 548.9625 652.1193 548.1344Q652.1193 547.15 652.8693 546.60315Q653.6193 546.0563 654.9943 546.0563L656.0412 546.0563L656.0412 545.5563Q656.0412 544.9938 655.69745 544.66565Q655.3693 544.3219 654.69745 544.3219Q654.1193 544.3219 653.7287 544.6188Q653.3381 544.9 653.3381 545.3219L652.2443 545.3219Q652.2443 544.8375 652.57245 544.4Q652.9162 543.9625 653.4943 543.7125Q654.07245 543.4469 654.75995 543.4469Q655.8693 543.4469 656.4787 543.9938Q657.1037 544.54065 657.13495 545.4938L657.13495 548.41565Q657.13495 549.29065 657.3537 549.8063L657.3537 549.9L656.2131 549.9ZM654.4162 549.0719Q654.9318 549.0719 655.38495 548.8063Q655.8381 548.54065 656.0412 548.1188L656.0412 546.8219L655.19745 546.8219Q653.19745 546.8219 653.19745 547.9938Q653.19745 548.4938 653.5412 548.79065Q653.88495 549.0719 654.4162 549.0719ZM660.32245 543.5563L660.3537 544.35315Q661.0881 543.4469 662.25995 543.4469Q664.2756 543.4469 664.2912 545.7125L664.2912 549.9L663.19745 549.9L663.19745 545.6969Q663.19745 545.025 662.88495 544.6969Q662.5881 544.3688 661.9318 544.3688Q661.4006 544.3688 660.9943 544.65Q660.6037 544.9313 660.38495 545.3844L660.38495 549.9L659.3068 549.9L659.3068 543.5563L660.32245 543.5563ZM667.4787 549.9L666.4006 549.9L666.4006 543.5563L667.4787 543.5563L667.4787 549.9ZM666.3068 541.8844Q666.3068 541.6188 666.4631 541.4313Q666.63495 541.2438 666.94745 541.2438Q667.25995 541.2438 667.4162 541.4313Q667.5881 541.6188 667.5881 541.8844Q667.5881 542.1344 667.4162 542.3219Q667.25995 542.4938 666.94745 542.4938Q666.63495 542.4938 666.4631 542.3219Q666.3068 542.1344 666.3068 541.8844ZM671.8381 549.1344Q672.4162 549.1344 672.8537 548.79065Q673.2912 548.4313 673.3381 547.9L674.3693 547.9Q674.3381 548.4469 673.9787 548.9469Q673.63495 549.4313 673.0568 549.72815Q672.4943 550.025 671.8381 550.025Q670.5412 550.025 669.7756 549.16565Q669.0256 548.29065 669.0256 546.79065L669.0256 546.60315Q669.0256 545.6813 669.3537 544.9625Q669.69745 544.2438 670.32245 543.85315Q670.9631 543.4469 671.8381 543.4469Q672.9006 543.4469 673.6037 544.0875Q674.32245 544.7125 674.3693 545.7438L673.3381 545.7438Q673.2912 545.1188 672.8693 544.72815Q672.44745 544.3375 671.8381 544.3375Q671.00995 544.3375 670.5568 544.9313Q670.1037 545.525 670.1037 546.65L670.1037 546.85315Q670.1037 547.9469 670.5568 548.54065Q671.00995 549.1344 671.8381 549.1344ZM680.7756 549.9L675.1818 549.9L675.1818 549.1188L678.13495 545.8375Q678.7912 545.0875 679.0412 544.6344Q679.2912 544.16565 679.2912 543.66565Q679.2912 542.9938 678.88495 542.5719Q678.4943 542.1344 677.8068 542.1344Q677.00995 542.1344 676.5568 542.60315Q676.1037 543.0563 676.1037 543.8844L675.0256 543.8844Q675.0256 542.6969 675.7756 541.97815Q676.5412 541.2438 677.8068 541.2438Q679.00995 541.2438 679.69745 541.8688Q680.38495 542.4938 680.38495 543.54065Q680.38495 544.79065 678.7756 546.54065L676.4943 549.0094L680.7756 549.0094L680.7756 549.9ZM685.7443 549.9L684.6662 549.9L684.6662 542.6813L682.4787 543.47815L682.4787 542.4938L685.5881 541.3219L685.7443 541.3219L685.7443 549.9ZM689.32245 549.3375Q689.32245 549.0563 689.4787 548.8688Q689.6506 548.6813 689.9787 548.6813Q690.32245 548.6813 690.4943 548.8688Q690.6662 549.0563 690.6662 549.3375Q690.6662 549.60315 690.4943 549.79065Q690.32245 549.9625 689.9787 549.9625Q689.6506 549.9625 689.4787 549.79065Q689.32245 549.60315 689.32245 549.3375ZM693.75995 545.10315L694.57245 545.10315Q695.3537 545.0875 695.7912 544.6969Q696.2287 544.3063 696.2287 543.6344Q696.2287 542.1344 694.7287 542.1344Q694.0256 542.1344 693.6037 542.54065Q693.19745 542.9469 693.19745 543.60315L692.1037 543.60315Q692.1037 542.5875 692.8381 541.91565Q693.5881 541.2438 694.7287 541.2438Q695.9318 541.2438 696.6193 541.8844Q697.3068 542.525 697.3068 543.66565Q697.3068 544.22815 696.94745 544.7438Q696.5881 545.2594 695.9631 545.525Q696.6662 545.7438 697.0412 546.2594Q697.4318 546.775 697.4318 547.525Q697.4318 548.66565 696.6818 549.35315Q695.9318 550.025 694.7287 550.025Q693.5412 550.025 692.7756 549.3688Q692.0256 548.7125 692.0256 547.65L693.1193 547.65Q693.1193 548.3219 693.5568 548.72815Q693.9943 549.1344 694.7443 549.1344Q695.5256 549.1344 695.9318 548.72815Q696.3537 548.3063 696.3537 547.54065Q696.3537 546.8063 695.9006 546.41565Q695.44745 546.0094 694.57245 545.9938L693.75995 545.9938L693.75995 545.10315Z" fill-rule="nonzero"/><path fill="#ff0068" d="M288.5 75.0C288.5 74.447716 288.94772 74.0 289.5 74.0L299.5 74.0C300.05228 74.0 300.5 74.447716 300.5 75.0L300.5 85.0C300.5 85.552284 300.05228 86.0 299.5 86.0L289.5 86.0C288.94772 86.0 288.5 85.552284 288.5 85.0Z" fill-rule="nonzero"/><path fill="#f3f3f3" d="M310.40625 78.921875Q311.125 78.046875 312.28125 78.046875Q314.29688 78.046875 314.3125 80.3125L314.3125 84.5L313.21875 84.5L313.21875 80.296875Q313.21875 79.625 312.90625 79.296875Q312.60938 78.96875 311.95312 78.96875Q311.42188 78.96875 311.01562 79.25Q310.625 79.53125 310.40625 79.984375L310.40625 84.5L309.32812 84.5L309.32812 75.5L310.40625 75.5L310.40625 78.921875ZM317.79688 76.625L317.79688 78.15625L318.96875 78.15625L318.96875 79.0L317.79688 79.0L317.79688 82.921875Q317.79688 83.3125 317.95312 83.5Q318.10938 83.6875 318.48438 83.6875Q318.67188 83.6875 319.0 83.625L319.0 84.5Q318.57812 84.625 318.17188 84.625Q317.45312 84.625 317.07812 84.1875Q316.70312 83.734375 316.70312 82.921875L316.70312 79.0L315.54688 79.0L315.54688 78.15625L316.70312 78.15625L316.70312 76.625L317.79688 76.625ZM321.79688 76.625L321.79688 78.15625L322.96875 78.15625L322.96875 79.0L321.79688 79.0L321.79688 82.921875Q321.79688 83.3125 321.95312 83.5Q322.10938 83.6875 322.48438 83.6875Q322.67188 83.6875 323.0 83.625L323.0 84.5Q322.57812 84.625 322.17188 84.625Q321.45312 84.625 321.07812 84.1875Q320.70312 83.734375 320.70312 82.921875L320.70312 79.0L319.54688 79.0L319.54688 78.15625L320.70312 78.15625L320.70312 76.625L321.79688 76.625ZM329.67188 81.40625Q329.67188 82.84375 329.01562 83.734375Q328.35938 84.625 327.21875 84.625Q326.0625 84.625 325.40625 83.890625L325.40625 86.9375L324.32812 86.9375L324.32812 78.15625L325.3125 78.15625L325.35938 78.859375Q326.03125 78.046875 327.20312 78.046875Q328.34375 78.046875 329.0 78.90625Q329.67188 79.765625 329.67188 81.296875L329.67188 81.40625ZM328.59375 81.28125Q328.59375 80.203125 328.125 79.59375Q327.67188 78.96875 326.875 78.96875Q325.89062 78.96875 325.40625 79.828125L325.40625 82.859375Q325.89062 83.734375 326.89062 83.734375Q327.67188 83.734375 328.125 83.125Q328.59375 82.5 328.59375 81.28125ZM331.34375 83.9375Q331.34375 83.65625 331.5 83.46875Q331.67188 83.28125 332.0 83.28125Q332.34375 83.28125 332.51562 83.46875Q332.6875 83.65625 332.6875 83.9375Q332.6875 84.203125 332.51562 84.390625Q332.34375 84.5625 332.0 84.5625Q331.67188 84.5625 331.5 84.390625Q331.34375 84.203125 331.34375 83.9375ZM331.34375 78.9375Q331.34375 78.65625 331.5 78.46875Q331.67188 78.28125 332.0 78.28125Q332.34375 78.28125 332.51562 78.46875Q332.6875 78.65625 332.6875 78.9375Q332.6875 79.203125 332.51562 79.390625Q332.34375 79.5625 332.0 79.5625Q331.67188 79.5625 331.5 79.390625Q331.34375 79.203125 331.34375 78.9375ZM334.53125 85.234375L333.60938 85.234375L337.17188 75.96875L338.09375 75.96875L334.53125 85.234375ZM339.53125 85.234375L338.60938 85.234375L342.17188 75.96875L343.09375 75.96875L339.53125 85.234375ZM345.5 84.5L344.42188 84.5L344.42188 75.5L345.5 75.5L345.5 84.5ZM347.03125 81.265625Q347.03125 80.34375 347.39062 79.59375Q347.76562 78.84375 348.42188 78.453125Q349.07812 78.046875 349.90625 78.046875Q351.20312 78.046875 352.0 78.9375Q352.8125 79.828125 352.8125 81.328125L352.8125 81.40625Q352.8125 82.328125 352.45312 83.0625Q352.09375 83.796875 351.4375 84.21875Q350.78125 84.625 349.92188 84.625Q348.64062 84.625 347.82812 83.734375Q347.03125 82.828125 347.03125 81.34375L347.03125 81.265625ZM348.125 81.40625Q348.125 82.453125 348.60938 83.09375Q349.10938 83.734375 349.92188 83.734375Q350.75 83.734375 351.23438 83.09375Q351.71875 82.4375 351.71875 81.265625Q351.71875 80.234375 351.21875 79.59375Q350.73438 78.9375 349.90625 78.9375Q349.10938 78.9375 348.60938 79.578125Q348.125 80.203125 348.125 81.40625ZM356.85938 83.734375Q357.4375 83.734375 357.875 83.390625Q358.3125 83.03125 358.35938 82.5L359.39062 82.5Q359.35938 83.046875 359.0 83.546875Q358.65625 84.03125 358.07812 84.328125Q357.51562 84.625 356.85938 84.625Q355.5625 84.625 354.79688 83.765625Q354.04688 82.890625 354.04688 81.390625L354.04688 81.203125Q354.04688 80.28125 354.375 79.5625Q354.71875 78.84375 355.34375 78.453125Q355.98438 78.046875 356.85938 78.046875Q357.92188 78.046875 358.625 78.6875Q359.34375 79.3125 359.39062 80.34375L358.35938 80.34375Q358.3125 79.71875 357.89062 79.328125Q357.46875 78.9375 356.85938 78.9375Q356.03125 78.9375 355.57812 79.53125Q355.125 80.125 355.125 81.25L355.125 81.453125Q355.125 82.546875 355.57812 83.140625Q356.03125 83.734375 356.85938 83.734375ZM364.23438 84.5Q364.14062 84.3125 364.07812 83.828125Q363.32812 84.625 362.28125 84.625Q361.34375 84.625 360.73438 84.09375Q360.14062 83.5625 360.14062 82.734375Q360.14062 81.75 360.89062 81.203125Q361.64062 80.65625 363.01562 80.65625L364.0625 80.65625L364.0625 80.15625Q364.0625 79.59375 363.71875 79.265625Q363.39062 78.921875 362.71875 78.921875Q362.14062 78.921875 361.75 79.21875Q361.35938 79.5 361.35938 79.921875L360.26562 79.921875Q360.26562 79.4375 360.59375 79.0Q360.9375 78.5625 361.51562 78.3125Q362.09375 78.046875 362.78125 78.046875Q363.89062 78.046875 364.5 78.59375Q365.125 79.140625 365.15625 80.09375L365.15625 83.015625Q365.15625 83.890625 365.375 84.40625L365.375 84.5L364.23438 84.5ZM362.4375 83.671875Q362.95312 83.671875 363.40625 83.40625Q363.85938 83.140625 364.0625 82.71875L364.0625 81.421875L363.21875 81.421875Q361.21875 81.421875 361.21875 82.59375Q361.21875 83.09375 361.5625 83.390625Q361.90625 83.671875 362.4375 83.671875ZM368.5 84.5L367.42188 84.5L367.42188 75.5L368.5 75.5L368.5 84.5ZM371.40625 78.921875Q372.125 78.046875 373.28125 78.046875Q375.29688 78.046875 375.3125 80.3125L375.3125 84.5L374.21875 84.5L374.21875 80.296875Q374.21875 79.625 373.90625 79.296875Q373.60938 78.96875 372.95312 78.96875Q372.42188 78.96875 372.01562 79.25Q371.625 79.53125 371.40625 79.984375L371.40625 84.5L370.32812 84.5L370.32812 75.5L371.40625 75.5L371.40625 78.921875ZM377.03125 81.265625Q377.03125 80.34375 377.39062 79.59375Q377.76562 78.84375 378.42188 78.453125Q379.07812 78.046875 379.90625 78.046875Q381.20312 78.046875 382.0 78.9375Q382.8125 79.828125 382.8125 81.328125L382.8125 81.40625Q382.8125 82.328125 382.45312 83.0625Q382.09375 83.796875 381.4375 84.21875Q380.78125 84.625 379.92188 84.625Q378.64062 84.625 377.82812 83.734375Q377.03125 82.828125 377.03125 81.34375L377.03125 81.265625ZM378.125 81.40625Q378.125 82.453125 378.60938 83.09375Q379.10938 83.734375 379.92188 83.734375Q380.75 83.734375 381.23438 83.09375Q381.71875 82.4375 381.71875 81.265625Q381.71875 80.234375 381.21875 79.59375Q380.73438 78.9375 379.90625 78.9375Q379.10938 78.9375 378.60938 79.578125Q378.125 80.203125 378.125 81.40625ZM388.01562 82.8125Q388.01562 82.375 387.67188 82.140625Q387.34375 81.890625 386.51562 81.71875Q385.70312 81.546875 385.21875 81.296875Q384.73438 81.046875 384.5 80.71875Q384.28125 80.375 384.28125 79.90625Q384.28125 79.125 384.9375 78.59375Q385.59375 78.046875 386.625 78.046875Q387.70312 78.046875 388.35938 78.609375Q389.03125 79.15625 389.03125 80.015625L387.95312 80.015625Q387.95312 79.578125 387.5625 79.265625Q387.1875 78.9375 386.625 78.9375Q386.03125 78.9375 385.6875 79.203125Q385.35938 79.453125 385.35938 79.859375Q385.35938 80.25 385.67188 80.453125Q385.98438 80.65625 386.79688 80.84375Q387.60938 81.015625 388.10938 81.265625Q388.60938 81.515625 388.84375 81.875Q389.09375 82.234375 389.09375 82.734375Q389.09375 83.59375 388.40625 84.109375Q387.73438 84.625 386.65625 84.625Q385.89062 84.625 385.29688 84.359375Q384.71875 84.078125 384.39062 83.59375Q384.0625 83.109375 384.0625 82.546875L385.14062 82.546875Q385.17188 83.09375 385.57812 83.421875Q385.98438 83.734375 386.65625 83.734375Q387.26562 83.734375 387.64062 83.484375Q388.01562 83.234375 388.01562 82.8125ZM391.79688 76.625L391.79688 78.15625L392.96875 78.15625L392.96875 79.0L391.79688 79.0L391.79688 82.921875Q391.79688 83.3125 391.95312 83.5Q392.10938 83.6875 392.48438 83.6875Q392.67188 83.6875 393.0 83.625L393.0 84.5Q392.57812 84.625 392.17188 84.625Q391.45312 84.625 391.07812 84.1875Q390.70312 83.734375 390.70312 82.921875L390.70312 79.0L389.54688 79.0L389.54688 78.15625L390.70312 78.15625L390.70312 76.625L391.79688 76.625ZM394.34375 83.9375Q394.34375 83.65625 394.5 83.46875Q394.67188 83.28125 395.0 83.28125Q395.34375 83.28125 395.51562 83.46875Q395.6875 83.65625 395.6875 83.9375Q395.6875 84.203125 395.51562 84.390625Q395.34375 84.5625 395.0 84.5625Q394.67188 84.5625 394.5 84.390625Q394.34375 84.203125 394.34375 83.9375ZM394.34375 78.9375Q394.34375 78.65625 394.5 78.46875Q394.67188 78.28125 395.0 78.28125Q395.34375 78.28125 395.51562 78.46875Q395.6875 78.65625 395.6875 78.9375Q395.6875 79.203125 395.51562 79.390625Q395.34375 79.5625 395.0 79.5625Q394.67188 79.5625 394.5 79.390625Q394.34375 79.203125 394.34375 78.9375ZM398.78125 79.703125L399.59375 79.703125Q400.375 79.6875 400.8125 79.296875Q401.25 78.90625 401.25 78.234375Q401.25 76.734375 399.75 76.734375Q399.04688 76.734375 398.625 77.140625Q398.21875 77.546875 398.21875 78.203125L397.125 78.203125Q397.125 77.1875 397.85938 76.515625Q398.60938 75.84375 399.75 75.84375Q400.95312 75.84375 401.64062 76.484375Q402.32812 77.125 402.32812 78.265625Q402.32812 78.828125 401.96875 79.34375Q401.60938 79.859375 400.98438 80.125Q401.6875 80.34375 402.0625 80.859375Q402.45312 81.375 402.45312 82.125Q402.45312 83.265625 401.70312 83.953125Q400.95312 84.625 399.75 84.625Q398.5625 84.625 397.79688 83.96875Q397.04688 83.3125 397.04688 82.25L398.14062 82.25Q398.14062 82.921875 398.57812 83.328125Q399.01562 83.734375 399.76562 83.734375Q400.54688 83.734375 400.95312 83.328125Q401.375 82.90625 401.375 82.140625Q401.375 81.40625 400.92188 81.015625Q400.46875 80.609375 399.59375 80.59375L398.78125 80.59375L398.78125 79.703125ZM409.5625 80.859375Q409.5625 82.765625 408.90625 83.703125Q408.26562 84.625 406.875 84.625Q405.51562 84.625 404.85938 83.71875Q404.20312 82.8125 404.17188 81.0L404.17188 79.5625Q404.17188 77.671875 404.8125 76.765625Q405.46875 75.84375 406.85938 75.84375Q408.23438 75.84375 408.89062 76.734375Q409.54688 77.609375 409.5625 79.453125L409.5625 80.859375ZM408.46875 79.375Q408.46875 78.0 408.07812 77.375Q407.70312 76.734375 406.85938 76.734375Q406.03125 76.734375 405.64062 77.375Q405.26562 78.0 405.26562 79.296875L405.26562 81.03125Q405.26562 82.40625 405.65625 83.078125Q406.0625 83.734375 406.875 83.734375Q407.67188 83.734375 408.0625 83.109375Q408.45312 82.484375 408.46875 81.15625L408.46875 79.375ZM416.5625 80.859375Q416.5625 82.765625 415.90625 83.703125Q415.26562 84.625 413.875 84.625Q412.51562 84.625 411.85938 83.71875Q411.20312 82.8125 411.17188 81.0L411.17188 79.5625Q411.17188 77.671875 411.8125 76.765625Q412.46875 75.84375 413.85938 75.84375Q415.23438 75.84375 415.89062 76.734375Q416.54688 77.609375 416.5625 79.453125L416.5625 80.859375ZM415.46875 79.375Q415.46875 78.0 415.07812 77.375Q414.70312 76.734375 413.85938 76.734375Q413.03125 76.734375 412.64062 77.375Q412.26562 78.0 412.26562 79.296875L412.26562 81.03125Q412.26562 82.40625 412.65625 83.078125Q413.0625 83.734375 413.875 83.734375Q414.67188 83.734375 415.0625 83.109375Q415.45312 82.484375 415.46875 81.15625L415.46875 79.375ZM423.5625 80.859375Q423.5625 82.765625 422.90625 83.703125Q422.26562 84.625 420.875 84.625Q419.51562 84.625 418.85938 83.71875Q418.20312 82.8125 418.17188 81.0L418.17188 79.5625Q418.17188 77.671875 418.8125 76.765625Q419.46875 75.84375 420.85938 75.84375Q422.23438 75.84375 422.89062 76.734375Q423.54688 77.609375 423.5625 79.453125L423.5625 80.859375ZM422.46875 79.375Q422.46875 78.0 422.07812 77.375Q421.70312 76.734375 420.85938 76.734375Q420.03125 76.734375 419.64062 77.375Q419.26562 78.0 419.26562 79.296875L419.26562 81.03125Q419.26562 82.40625 419.65625 83.078125Q420.0625 83.734375 420.875 83.734375Q421.67188 83.734375 422.0625 83.109375Q422.45312 82.484375 422.46875 81.15625L422.46875 79.375Z" fill-rule="nonzero"/><path fill="#ff9ac3" d="M440.5 75.0C440.5 74.447716 440.94772 74.0 441.5 74.0L451.5 74.0C452.05228 74.0 452.5 74.447716 452.5 75.0L452.5 85.0C452.5 85.552284 452.05228 86.0 451.5 86.0L441.5 86.0C440.94772 86.0 440.5 85.552284 440.5 85.0Z" fill-rule="nonzero"/><path fill="#f3f3f3" d="M462.40625 78.921875Q463.125 78.046875 464.28125 78.046875Q466.29688 78.046875 466.3125 80.3125L466.3125 84.5L465.21875 84.5L465.21875 80.296875Q465.21875 79.625 464.90625 79.296875Q464.60938 78.96875 463.95312 78.96875Q463.42188 78.96875 463.01562 79.25Q462.625 79.53125 462.40625 79.984375L462.40625 84.5L461.32812 84.5L461.32812 75.5L462.40625 75.5L462.40625 78.921875ZM469.79688 76.625L469.79688 78.15625L470.96875 78.15625L470.96875 79.0L469.79688 79.0L469.79688 82.921875Q469.79688 83.3125 469.95312 83.5Q470.10938 83.6875 470.48438 83.6875Q470.67188 83.6875 471.0 83.625L471.0 84.5Q470.57812 84.625 470.17188 84.625Q469.45312 84.625 469.07812 84.1875Q468.70312 83.734375 468.70312 82.921875L468.70312 79.0L467.54688 79.0L467.54688 78.15625L468.70312 78.15625L468.70312 76.625L469.79688 76.625ZM473.79688 76.625L473.79688 78.15625L474.96875 78.15625L474.96875 79.0L473.79688 79.0L473.79688 82.921875Q473.79688 83.3125 473.95312 83.5Q474.10938 83.6875 474.48438 83.6875Q474.67188 83.6875 475.0 83.625L475.0 84.5Q474.57812 84.625 474.17188 84.625Q473.45312 84.625 473.07812 84.1875Q472.70312 83.734375 472.70312 82.921875L472.70312 79.0L471.54688 79.0L471.54688 78.15625L472.70312 78.15625L472.70312 76.625L473.79688 76.625ZM481.67188 81.40625Q481.67188 82.84375 481.01562 83.734375Q480.35938 84.625 479.21875 84.625Q478.0625 84.625 477.40625 83.890625L477.40625 86.9375L476.32812 86.9375L476.32812 78.15625L477.3125 78.15625L477.35938 78.859375Q478.03125 78.046875 479.20312 78.046875Q480.34375 78.046875 481.0 78.90625Q481.67188 79.765625 481.67188 81.296875L481.67188 81.40625ZM480.59375 81.28125Q480.59375 80.203125 480.125 79.59375Q479.67188 78.96875 478.875 78.96875Q477.89062 78.96875 477.40625 79.828125L477.40625 82.859375Q477.89062 83.734375 478.89062 83.734375Q479.67188 83.734375 480.125 83.125Q480.59375 82.5 480.59375 81.28125ZM483.34375 83.9375Q483.34375 83.65625 483.5 83.46875Q483.67188 83.28125 484.0 83.28125Q484.34375 83.28125 484.51562 83.46875Q484.6875 83.65625 484.6875 83.9375Q484.6875 84.203125 484.51562 84.390625Q484.34375 84.5625 484.0 84.5625Q483.67188 84.5625 483.5 84.390625Q483.34375 84.203125 483.34375 83.9375ZM483.34375 78.9375Q483.34375 78.65625 483.5 78.46875Q483.67188 78.28125 484.0 78.28125Q484.34375 78.28125 484.51562 78.46875Q484.6875 78.65625 484.6875 78.9375Q484.6875 79.203125 484.51562 79.390625Q484.34375 79.5625 484.0 79.5625Q483.67188 79.5625 483.5 79.390625Q483.34375 79.203125 483.34375 78.9375ZM486.53125 85.234375L485.60938 85.234375L489.17188 75.96875L490.09375 75.96875L486.53125 85.234375ZM491.53125 85.234375L490.60938 85.234375L494.17188 75.96875L495.09375 75.96875L491.53125 85.234375ZM497.5 84.5L496.42188 84.5L496.42188 75.5L497.5 75.5L497.5 84.5ZM499.03125 81.265625Q499.03125 80.34375 499.39062 79.59375Q499.76562 78.84375 500.42188 78.453125Q501.07812 78.046875 501.90625 78.046875Q503.20312 78.046875 504.0 78.9375Q504.8125 79.828125 504.8125 81.328125L504.8125 81.40625Q504.8125 82.328125 504.45312 83.0625Q504.09375 83.796875 503.4375 84.21875Q502.78125 84.625 501.92188 84.625Q500.64062 84.625 499.82812 83.734375Q499.03125 82.828125 499.03125 81.34375L499.03125 81.265625ZM500.125 81.40625Q500.125 82.453125 500.60938 83.09375Q501.10938 83.734375 501.92188 83.734375Q502.75 83.734375 503.23438 83.09375Q503.71875 82.4375 503.71875 81.265625Q503.71875 80.234375 503.21875 79.59375Q502.73438 78.9375 501.90625 78.9375Q501.10938 78.9375 500.60938 79.578125Q500.125 80.203125 500.125 81.40625ZM508.85938 83.734375Q509.4375 83.734375 509.875 83.390625Q510.3125 83.03125 510.35938 82.5L511.39062 82.5Q511.35938 83.046875 511.0 83.546875Q510.65625 84.03125 510.07812 84.328125Q509.51562 84.625 508.85938 84.625Q507.5625 84.625 506.79688 83.765625Q506.04688 82.890625 506.04688 81.390625L506.04688 81.203125Q506.04688 80.28125 506.375 79.5625Q506.71875 78.84375 507.34375 78.453125Q507.98438 78.046875 508.85938 78.046875Q509.92188 78.046875 510.625 78.6875Q511.34375 79.3125 511.39062 80.34375L510.35938 80.34375Q510.3125 79.71875 509.89062 79.328125Q509.46875 78.9375 508.85938 78.9375Q508.03125 78.9375 507.57812 79.53125Q507.125 80.125 507.125 81.25L507.125 81.453125Q507.125 82.546875 507.57812 83.140625Q508.03125 83.734375 508.85938 83.734375ZM516.2344 84.5Q516.1406 84.3125 516.0781 83.828125Q515.3281 84.625 514.28125 84.625Q513.34375 84.625 512.7344 84.09375Q512.1406 83.5625 512.1406 82.734375Q512.1406 81.75 512.8906 81.203125Q513.6406 80.65625 515.0156 80.65625L516.0625 80.65625L516.0625 80.15625Q516.0625 79.59375 515.71875 79.265625Q515.3906 78.921875 514.71875 78.921875Q514.1406 78.921875 513.75 79.21875Q513.3594 79.5 513.3594 79.921875L512.2656 79.921875Q512.2656 79.4375 512.59375 79.0Q512.9375 78.5625 513.5156 78.3125Q514.09375 78.046875 514.78125 78.046875Q515.8906 78.046875 516.5 78.59375Q517.125 79.140625 517.15625 80.09375L517.15625 83.015625Q517.15625 83.890625 517.375 84.40625L517.375 84.5L516.2344 84.5ZM514.4375 83.671875Q514.9531 83.671875 515.40625 83.40625Q515.8594 83.140625 516.0625 82.71875L516.0625 81.421875L515.21875 81.421875Q513.21875 81.421875 513.21875 82.59375Q513.21875 83.09375 513.5625 83.390625Q513.90625 83.671875 514.4375 83.671875ZM520.5 84.5L519.4219 84.5L519.4219 75.5L520.5 75.5L520.5 84.5ZM523.40625 78.921875Q524.125 78.046875 525.28125 78.046875Q527.2969 78.046875 527.3125 80.3125L527.3125 84.5L526.21875 84.5L526.21875 80.296875Q526.21875 79.625 525.90625 79.296875Q525.6094 78.96875 524.9531 78.96875Q524.4219 78.96875 524.0156 79.25Q523.625 79.53125 523.40625 79.984375L523.40625 84.5L522.3281 84.5L522.3281 75.5L523.40625 75.5L523.40625 78.921875ZM529.03125 81.265625Q529.03125 80.34375 529.3906 79.59375Q529.7656 78.84375 530.4219 78.453125Q531.0781 78.046875 531.90625 78.046875Q533.2031 78.046875 534.0 78.9375Q534.8125 79.828125 534.8125 81.328125L534.8125 81.40625Q534.8125 82.328125 534.4531 83.0625Q534.09375 83.796875 533.4375 84.21875Q532.78125 84.625 531.9219 84.625Q530.6406 84.625 529.8281 83.734375Q529.03125 82.828125 529.03125 81.34375L529.03125 81.265625ZM530.125 81.40625Q530.125 82.453125 530.6094 83.09375Q531.1094 83.734375 531.9219 83.734375Q532.75 83.734375 533.2344 83.09375Q533.71875 82.4375 533.71875 81.265625Q533.71875 80.234375 533.21875 79.59375Q532.7344 78.9375 531.90625 78.9375Q531.1094 78.9375 530.6094 79.578125Q530.125 80.203125 530.125 81.40625ZM540.0156 82.8125Q540.0156 82.375 539.6719 82.140625Q539.34375 81.890625 538.5156 81.71875Q537.7031 81.546875 537.21875 81.296875Q536.7344 81.046875 536.5 80.71875Q536.28125 80.375 536.28125 79.90625Q536.28125 79.125 536.9375 78.59375Q537.59375 78.046875 538.625 78.046875Q539.7031 78.046875 540.3594 78.609375Q541.03125 79.15625 541.03125 80.015625L539.9531 80.015625Q539.9531 79.578125 539.5625 79.265625Q539.1875 78.9375 538.625 78.9375Q538.03125 78.9375 537.6875 79.203125Q537.3594 79.453125 537.3594 79.859375Q537.3594 80.25 537.6719 80.453125Q537.9844 80.65625 538.7969 80.84375Q539.6094 81.015625 540.1094 81.265625Q540.6094 81.515625 540.84375 81.875Q541.09375 82.234375 541.09375 82.734375Q541.09375 83.59375 540.40625 84.109375Q539.7344 84.625 538.65625 84.625Q537.8906 84.625 537.2969 84.359375Q536.71875 84.078125 536.3906 83.59375Q536.0625 83.109375 536.0625 82.546875L537.1406 82.546875Q537.1719 83.09375 537.5781 83.421875Q537.9844 83.734375 538.65625 83.734375Q539.2656 83.734375 539.6406 83.484375Q540.0156 83.234375 540.0156 82.8125ZM543.7969 76.625L543.7969 78.15625L544.96875 78.15625L544.96875 79.0L543.7969 79.0L543.7969 82.921875Q543.7969 83.3125 543.9531 83.5Q544.1094 83.6875 544.4844 83.6875Q544.6719 83.6875 545.0 83.625L545.0 84.5Q544.5781 84.625 544.1719 84.625Q543.4531 84.625 543.0781 84.1875Q542.7031 83.734375 542.7031 82.921875L542.7031 79.0L541.5469 79.0L541.5469 78.15625L542.7031 78.15625L542.7031 76.625L543.7969 76.625ZM546.34375 83.9375Q546.34375 83.65625 546.5 83.46875Q546.6719 83.28125 547.0 83.28125Q547.34375 83.28125 547.5156 83.46875Q547.6875 83.65625 547.6875 83.9375Q547.6875 84.203125 547.5156 84.390625Q547.34375 84.5625 547.0 84.5625Q546.6719 84.5625 546.5 84.390625Q546.34375 84.203125 546.34375 83.9375ZM546.34375 78.9375Q546.34375 78.65625 546.5 78.46875Q546.6719 78.28125 547.0 78.28125Q547.34375 78.28125 547.5156 78.46875Q547.6875 78.65625 547.6875 78.9375Q547.6875 79.203125 547.5156 79.390625Q547.34375 79.5625 547.0 79.5625Q546.6719 79.5625 546.5 79.390625Q546.34375 79.203125 546.34375 78.9375ZM550.78125 79.703125L551.59375 79.703125Q552.375 79.6875 552.8125 79.296875Q553.25 78.90625 553.25 78.234375Q553.25 76.734375 551.75 76.734375Q551.0469 76.734375 550.625 77.140625Q550.21875 77.546875 550.21875 78.203125L549.125 78.203125Q549.125 77.1875 549.8594 76.515625Q550.6094 75.84375 551.75 75.84375Q552.9531 75.84375 553.6406 76.484375Q554.3281 77.125 554.3281 78.265625Q554.3281 78.828125 553.96875 79.34375Q553.6094 79.859375 552.9844 80.125Q553.6875 80.34375 554.0625 80.859375Q554.4531 81.375 554.4531 82.125Q554.4531 83.265625 553.7031 83.953125Q552.9531 84.625 551.75 84.625Q550.5625 84.625 549.7969 83.96875Q549.0469 83.3125 549.0469 82.25L550.1406 82.25Q550.1406 82.921875 550.5781 83.328125Q551.0156 83.734375 551.7656 83.734375Q552.5469 83.734375 552.9531 83.328125Q553.375 82.90625 553.375 82.140625Q553.375 81.40625 552.9219 81.015625Q552.46875 80.609375 551.59375 80.59375L550.78125 80.59375L550.78125 79.703125ZM561.5625 80.859375Q561.5625 82.765625 560.90625 83.703125Q560.2656 84.625 558.875 84.625Q557.5156 84.625 556.8594 83.71875Q556.2031 82.8125 556.1719 81.0L556.1719 79.5625Q556.1719 77.671875 556.8125 76.765625Q557.46875 75.84375 558.8594 75.84375Q560.2344 75.84375 560.8906 76.734375Q561.5469 77.609375 561.5625 79.453125L561.5625 80.859375ZM560.46875 79.375Q560.46875 78.0 560.0781 77.375Q559.7031 76.734375 558.8594 76.734375Q558.03125 76.734375 557.6406 77.375Q557.2656 78.0 557.2656 79.296875L557.2656 81.03125Q557.2656 82.40625 557.65625 83.078125Q558.0625 83.734375 558.875 83.734375Q559.6719 83.734375 560.0625 83.109375Q560.4531 82.484375 560.46875 81.15625L560.46875 79.375ZM568.5625 80.859375Q568.5625 82.765625 567.90625 83.703125Q567.2656 84.625 565.875 84.625Q564.5156 84.625 563.8594 83.71875Q563.2031 82.8125 563.1719 81.0L563.1719 79.5625Q563.1719 77.671875 563.8125 76.765625Q564.46875 75.84375 565.8594 75.84375Q567.2344 75.84375 567.8906 76.734375Q568.5469 77.609375 568.5625 79.453125L568.5625 80.859375ZM567.46875 79.375Q567.46875 78.0 567.0781 77.375Q566.7031 76.734375 565.8594 76.734375Q565.03125 76.734375 564.6406 77.375Q564.2656 78.0 564.2656 79.296875L564.2656 81.03125Q564.2656 82.40625 564.65625 83.078125Q565.0625 83.734375 565.875 83.734375Q566.6719 83.734375 567.0625 83.109375Q567.4531 82.484375 567.46875 81.15625L567.46875 79.375ZM575.5625 80.859375Q575.5625 82.765625 574.90625 83.703125Q574.2656 84.625 572.875 84.625Q571.5156 84.625 570.8594 83.71875Q570.2031 82.8125 570.1719 81.0L570.1719 79.5625Q570.1719 77.671875 570.8125 76.765625Q571.46875 75.84375 572.8594 75.84375Q574.2344 75.84375 574.8906 76.734375Q575.5469 77.609375 575.5625 79.453125L575.5625 80.859375ZM574.46875 79.375Q574.46875 78.0 574.0781 77.375Q573.7031 76.734375 572.8594 76.734375Q572.03125 76.734375 571.6406 77.375Q571.2656 78.0 571.2656 79.296875L571.2656 81.03125Q571.2656 82.40625 571.65625 83.078125Q572.0625 83.734375 572.875 83.734375Q573.6719 83.734375 574.0625 83.109375Q574.4531 82.484375 574.46875 81.15625L574.46875 79.375ZM577.53125 85.234375L576.6094 85.234375L580.1719 75.96875L581.09375 75.96875L577.53125 85.234375ZM586.2344 83.875Q585.6094 84.625 584.375 84.625Q583.3594 84.625 582.8281 84.03125Q582.2969 83.4375 582.2969 82.28125L582.2969 78.15625L583.375 78.15625L583.375 82.25Q583.375 83.703125 584.5469 83.703125Q585.7969 83.703125 586.2031 82.765625L586.2031 78.15625L587.2969 78.15625L587.2969 84.5L586.2656 84.5L586.2344 83.875ZM593.0156 82.8125Q593.0156 82.375 592.6719 82.140625Q592.34375 81.890625 591.5156 81.71875Q590.7031 81.546875 590.21875 81.296875Q589.7344 81.046875 589.5 80.71875Q589.28125 80.375 589.28125 79.90625Q589.28125 79.125 589.9375 78.59375Q590.59375 78.046875 591.625 78.046875Q592.7031 78.046875 593.3594 78.609375Q594.03125 79.15625 594.03125 80.015625L592.9531 80.015625Q592.9531 79.578125 592.5625 79.265625Q592.1875 78.9375 591.625 78.9375Q591.03125 78.9375 590.6875 79.203125Q590.3594 79.453125 590.3594 79.859375Q590.3594 80.25 590.6719 80.453125Q590.9844 80.65625 591.7969 80.84375Q592.6094 81.015625 593.1094 81.265625Q593.6094 81.515625 593.84375 81.875Q594.09375 82.234375 594.09375 82.734375Q594.09375 83.59375 593.40625 84.109375Q592.7344 84.625 591.65625 84.625Q590.8906 84.625 590.2969 84.359375Q589.71875 84.078125 589.3906 83.59375Q589.0625 83.109375 589.0625 82.546875L590.1406 82.546875Q590.1719 83.09375 590.5781 83.421875Q590.9844 83.734375 591.65625 83.734375Q592.2656 83.734375 592.6406 83.484375Q593.0156 83.234375 593.0156 82.8125ZM597.9531 84.625Q596.65625 84.625 595.84375 83.78125Q595.0469 82.921875 595.0469 81.5L595.0469 81.3125Q595.0469 80.359375 595.40625 79.625Q595.7656 78.875 596.40625 78.46875Q597.0625 78.046875 597.8125 78.046875Q599.0469 78.046875 599.7344 78.859375Q600.4219 79.671875 600.4219 81.1875L600.4219 81.640625L596.125 81.640625Q596.15625 82.578125 596.6719 83.15625Q597.2031 83.734375 598.0156 83.734375Q598.5781 83.734375 598.96875 83.5Q599.375 83.265625 599.6875 82.875L600.34375 83.390625Q599.5469 84.625 597.9531 84.625ZM597.8125 78.9375Q597.15625 78.9375 596.7031 79.421875Q596.2656 79.890625 596.1719 80.75L599.34375 80.75L599.34375 80.671875Q599.2969 79.84375 598.8906 79.390625Q598.5 78.9375 597.8125 78.9375ZM604.3906 79.125Q604.1406 79.09375 603.8594 79.09375Q602.78125 79.09375 602.40625 80.0L602.40625 84.5L601.3281 84.5L601.3281 78.15625L602.375 78.15625L602.3906 78.890625Q602.9219 78.046875 603.90625 78.046875Q604.21875 78.046875 604.3906 78.125L604.3906 79.125ZM605.53125 85.234375L604.6094 85.234375L608.1719 75.96875L609.09375 75.96875L605.53125 85.234375ZM613.7656 84.5L612.6875 84.5L612.6875 77.28125L610.5 78.078125L610.5 77.09375L613.6094 75.921875L613.7656 75.921875L613.7656 84.5ZM622.7969 84.5L617.2031 84.5L617.2031 83.71875L620.15625 80.4375Q620.8125 79.6875 621.0625 79.234375Q621.3125 78.765625 621.3125 78.265625Q621.3125 77.59375 620.90625 77.171875Q620.5156 76.734375 619.8281 76.734375Q619.03125 76.734375 618.5781 77.203125Q618.125 77.65625 618.125 78.484375L617.0469 78.484375Q617.0469 77.296875 617.7969 76.578125Q618.5625 75.84375 619.8281 75.84375Q621.03125 75.84375 621.71875 76.46875Q622.40625 77.09375 622.40625 78.140625Q622.40625 79.390625 620.7969 81.140625L618.5156 83.609375L622.7969 83.609375L622.7969 84.5ZM625.78125 79.703125L626.59375 79.703125Q627.375 79.6875 627.8125 79.296875Q628.25 78.90625 628.25 78.234375Q628.25 76.734375 626.75 76.734375Q626.0469 76.734375 625.625 77.140625Q625.21875 77.546875 625.21875 78.203125L624.125 78.203125Q624.125 77.1875 624.8594 76.515625Q625.6094 75.84375 626.75 75.84375Q627.9531 75.84375 628.6406 76.484375Q629.3281 77.125 629.3281 78.265625Q629.3281 78.828125 628.96875 79.34375Q628.6094 79.859375 627.9844 80.125Q628.6875 80.34375 629.0625 80.859375Q629.4531 81.375 629.4531 82.125Q629.4531 83.265625 628.7031 83.953125Q627.9531 84.625 626.75 84.625Q625.5625 84.625 624.7969 83.96875Q624.0469 83.3125 624.0469 82.25L625.1406 82.25Q625.1406 82.921875 625.5781 83.328125Q626.0156 83.734375 626.7656 83.734375Q627.5469 83.734375 627.9531 83.328125Q628.375 82.90625 628.375 82.140625Q628.375 81.40625 627.9219 81.015625Q627.46875 80.609375 626.59375 80.59375L625.78125 80.59375L625.78125 79.703125ZM635.78125 81.640625L636.96875 81.640625L636.96875 82.515625L635.78125 82.515625L635.78125 84.5L634.7031 84.5L634.7031 82.515625L630.8125 82.515625L630.8125 81.875L634.625 75.96875L635.78125 75.96875L635.78125 81.640625ZM632.0469 81.640625L634.7031 81.640625L634.7031 77.453125L634.5625 77.6875L632.0469 81.640625ZM638.7031 80.21875L639.1406 75.96875L643.5156 75.96875L643.5156 76.96875L640.0625 76.96875L639.7969 79.296875Q640.4375 78.921875 641.2344 78.921875Q642.3906 78.921875 643.0781 79.703125Q643.7656 80.46875 643.7656 81.78125Q643.7656 83.09375 643.0469 83.859375Q642.34375 84.625 641.0625 84.625Q639.9375 84.625 639.21875 84.0Q638.5 83.359375 638.40625 82.25L639.4219 82.25Q639.53125 82.984375 639.9531 83.359375Q640.375 83.734375 641.0625 83.734375Q641.8125 83.734375 642.25 83.21875Q642.6875 82.703125 642.6875 81.796875Q642.6875 80.9375 642.21875 80.421875Q641.75 79.90625 640.96875 79.90625Q640.2656 79.90625 639.8594 80.203125L639.5781 80.4375L638.7031 80.21875ZM649.46875 75.96875L649.46875 76.875L649.2656 76.875Q648.0 76.90625 647.25 77.640625Q646.5 78.359375 646.375 79.671875Q647.0625 78.90625 648.21875 78.90625Q649.3281 78.90625 650.0 79.6875Q650.6719 80.46875 650.6719 81.71875Q650.6719 83.03125 649.9531 83.828125Q649.2344 84.625 648.0156 84.625Q646.7969 84.625 646.03125 83.6875Q645.28125 82.734375 645.28125 81.25L645.28125 80.84375Q645.28125 78.484375 646.28125 77.234375Q647.28125 75.984375 649.2656 75.96875L649.46875 75.96875ZM648.0469 79.8125Q647.4844 79.8125 647.0156 80.140625Q646.5469 80.46875 646.3594 80.984375L646.3594 81.375Q646.3594 82.4375 646.8281 83.078125Q647.3125 83.71875 648.0156 83.71875Q648.75 83.71875 649.1719 83.1875Q649.59375 82.640625 649.59375 81.765625Q649.59375 80.890625 649.1719 80.359375Q648.75 79.8125 648.0469 79.8125Z" fill-rule="nonzero"/><path fill="#f3f3f3" d="M35.959373 42.35L32.63125 42.35L32.63125 48.1L30.740625 48.1L30.740625 33.88125L35.44375 33.88125Q37.85 33.88125 39.146873 34.975Q40.44375 36.06875 40.44375 38.1625Q40.44375 39.490623 39.725 40.475Q39.00625 41.459373 37.725 41.94375L41.06875 47.975L41.06875 48.1L39.053123 48.1L35.959373 42.35ZM32.63125 40.81875L35.50625 40.81875Q36.896873 40.81875 37.725 40.1Q38.553123 39.365623 38.553123 38.1625Q38.553123 36.834373 37.75625 36.13125Q36.975 35.428123 35.490623 35.428123L32.63125 35.428123L32.63125 40.81875ZM46.85 48.303123Q44.709373 48.303123 43.35 46.896873Q42.00625 45.475 42.00625 43.115623L42.00625 42.771873Q42.00625 41.209373 42.6 39.975Q43.209373 38.740623 44.2875 38.0375Q45.365623 37.334373 46.63125 37.334373Q48.69375 37.334373 49.834373 38.69375Q50.975 40.053123 50.975 42.584373L50.975 43.334373L43.81875 43.334373Q43.85 44.896873 44.725 45.865623Q45.6 46.81875 46.94375 46.81875Q47.9125 46.81875 48.56875 46.428123Q49.240623 46.0375 49.740623 45.396873L50.834373 46.25625Q49.50625 48.303123 46.85 48.303123ZM46.63125 38.81875Q45.5375 38.81875 44.7875 39.615623Q44.053123 40.4125 43.88125 41.85L49.1625 41.85L49.1625 41.709373Q49.084373 40.334373 48.4125 39.584373Q47.75625 38.81875 46.63125 38.81875ZM53.021873 42.725Q53.021873 40.240623 54.1625 38.7875Q55.31875 37.334373 57.240623 37.334373Q59.115623 37.334373 60.19375 38.6L60.271873 37.5375L61.928123 37.5375L61.928123 52.1625L60.13125 52.1625L60.13125 47.115623Q59.0375 48.303123 57.225 48.303123Q55.303123 48.303123 54.1625 46.81875Q53.021873 45.31875 53.021873 42.85L53.021873 42.725ZM54.834373 42.928123Q54.834373 44.75625 55.6 45.7875Q56.365623 46.81875 57.6625 46.81875Q59.271873 46.81875 60.13125 45.396873L60.13125 40.225Q59.271873 38.81875 57.69375 38.81875Q56.38125 38.81875 55.6 39.865623Q54.834373 40.896873 54.834373 42.928123ZM70.99062 47.053123Q69.94375 48.303123 67.89687 48.303123Q66.20937 48.303123 65.31875 47.31875Q64.44375 46.334373 64.42812 44.4125L64.42812 37.5375L66.24062 37.5375L66.24062 44.365623Q66.24062 46.75625 68.19375 46.75625Q70.25625 46.75625 70.94375 45.225L70.94375 37.5375L72.75625 37.5375L72.75625 48.1L71.0375 48.1L70.99062 47.053123ZM79.85 48.303123Q77.70937 48.303123 76.35 46.896873Q75.00625 45.475 75.00625 43.115623L75.00625 42.771873Q75.00625 41.209373 75.6 39.975Q76.20937 38.740623 77.2875 38.0375Q78.36562 37.334373 79.63125 37.334373Q81.69375 37.334373 82.83437 38.69375Q83.975 40.053123 83.975 42.584373L83.975 43.334373L76.81875 43.334373Q76.85 44.896873 77.725 45.865623Q78.6 46.81875 79.94375 46.81875Q80.9125 46.81875 81.56875 46.428123Q82.24062 46.0375 82.74062 45.396873L83.83437 46.25625Q82.50625 48.303123 79.85 48.303123ZM79.63125 38.81875Q78.5375 38.81875 77.7875 39.615623Q77.05312 40.4125 76.88125 41.85L82.1625 41.85L82.1625 41.709373Q82.08437 40.334373 81.4125 39.584373Q80.75625 38.81875 79.63125 38.81875ZM92.61562 45.303123Q92.61562 44.56875 92.06875 44.1625Q91.52187 43.75625 90.14687 43.459373Q88.77187 43.1625 87.95937 42.75625Q87.1625 42.35 86.77187 41.7875Q86.39687 41.209373 86.39687 40.428123Q86.39687 39.13125 87.49062 38.240623Q88.58437 37.334373 90.30312 37.334373Q92.1 37.334373 93.20937 38.271873Q94.33437 39.19375 94.33437 40.63125L92.50625 40.63125Q92.50625 39.896873 91.88125 39.365623Q91.25625 38.81875 90.30312 38.81875Q89.30312 38.81875 88.74062 39.25625Q88.19375 39.678123 88.19375 40.38125Q88.19375 41.021873 88.70937 41.365623Q89.225 41.69375 90.58437 42.00625Q91.94375 42.303123 92.77187 42.725Q93.61562 43.13125 94.02187 43.725Q94.42812 44.31875 94.42812 45.1625Q94.42812 46.584373 93.2875 47.44375Q92.1625 48.303123 90.35 48.303123Q89.08437 48.303123 88.1 47.85Q87.13125 47.396873 86.56875 46.6Q86.02187 45.7875 86.02187 44.85L87.83437 44.85Q87.88125 45.75625 88.55312 46.2875Q89.24062 46.81875 90.35 46.81875Q91.38125 46.81875 91.99062 46.4125Q92.61562 45.990623 92.61562 45.303123ZM98.9125 34.975L98.9125 37.5375L100.89687 37.5375L100.89687 38.928123L98.9125 38.928123L98.9125 45.475Q98.9125 46.115623 99.17812 46.44375Q99.44375 46.75625 100.08437 46.75625Q100.39687 46.75625 100.94375 46.63125L100.94375 48.1Q100.225 48.303123 99.55312 48.303123Q98.35 48.303123 97.725 47.56875Q97.11562 46.834373 97.11562 45.475L97.11562 38.928123L95.19375 38.928123L95.19375 37.5375L97.11562 37.5375L97.11562 34.975L98.9125 34.975ZM109.61562 45.303123Q109.61562 44.56875 109.06875 44.1625Q108.52187 43.75625 107.14687 43.459373Q105.77187 43.1625 104.95937 42.75625Q104.1625 42.35 103.77187 41.7875Q103.39687 41.209373 103.39687 40.428123Q103.39687 39.13125 104.49062 38.240623Q105.58437 37.334373 107.30312 37.334373Q109.1 37.334373 110.20937 38.271873Q111.33437 39.19375 111.33437 40.63125L109.50625 40.63125Q109.50625 39.896873 108.88125 39.365623Q108.25625 38.81875 107.30312 38.81875Q106.30312 38.81875 105.74062 39.25625Q105.19375 39.678123 105.19375 40.38125Q105.19375 41.021873 105.70937 41.365623Q106.225 41.69375 107.58437 42.00625Q108.94375 42.303123 109.77187 42.725Q110.61562 43.13125 111.02187 43.725Q111.42812 44.31875 111.42812 45.1625Q111.42812 46.584373 110.2875 47.44375Q109.1625 48.303123 107.35 48.303123Q106.08437 48.303123 105.1 47.85Q104.13125 47.396873 103.56875 46.6Q103.02187 45.7875 103.02187 44.85L104.83437 44.85Q104.88125 45.75625 105.55312 46.2875Q106.24062 46.81875 107.35 46.81875Q108.38125 46.81875 108.99062 46.4125Q109.61562 45.990623 109.61562 45.303123ZM127.39687 42.928123Q127.39687 45.35 126.2875 46.834373Q125.19375 48.303123 123.30312 48.303123Q121.38125 48.303123 120.27187 47.06875L120.27187 52.1625L118.475 52.1625L118.475 37.5375L120.11562 37.5375L120.20937 38.709373Q121.30312 37.334373 123.27187 37.334373Q125.17812 37.334373 126.2875 38.771873Q127.39687 40.209373 127.39687 42.771873L127.39687 42.928123ZM125.58437 42.725Q125.58437 40.94375 124.81875 39.9125Q124.06875 38.865623 122.74062 38.865623Q121.1 38.865623 120.27187 40.31875L120.27187 45.38125Q121.08437 46.81875 122.75625 46.81875Q124.05312 46.81875 124.81875 45.7875Q125.58437 44.75625 125.58437 42.725ZM133.85 48.303123Q131.70938 48.303123 130.35 46.896873Q129.00626 45.475 129.00626 43.115623L129.00626 42.771873Q129.00626 41.209373 129.6 39.975Q130.20938 38.740623 131.2875 38.0375Q132.36563 37.334373 133.63126 37.334373Q135.69376 37.334373 136.83438 38.69375Q137.975 40.053123 137.975 42.584373L137.975 43.334373L130.81876 43.334373Q130.85 44.896873 131.725 45.865623Q132.6 46.81875 133.94376 46.81875Q134.9125 46.81875 135.56876 46.428123Q136.24063 46.0375 136.74063 45.396873L137.83438 46.25625Q136.50626 48.303123 133.85 48.303123ZM133.63126 38.81875Q132.5375 38.81875 131.7875 39.615623Q131.05313 40.4125 130.88126 41.85L136.1625 41.85L136.1625 41.709373Q136.08438 40.334373 135.4125 39.584373Q134.75626 38.81875 133.63126 38.81875ZM145.56876 39.146873Q145.1625 39.084373 144.69376 39.084373Q142.9125 39.084373 142.27188 40.6L142.27188 48.1L140.475 48.1L140.475 37.5375L142.225 37.5375L142.25626 38.75625Q143.14688 37.334373 144.77188 37.334373Q145.30313 37.334373 145.56876 37.475L145.56876 39.146873ZM158.61563 45.303123Q158.61563 44.56875 158.06876 44.1625Q157.52188 43.75625 156.14688 43.459373Q154.77188 43.1625 153.95938 42.75625Q153.1625 42.35 152.77188 41.7875Q152.39688 41.209373 152.39688 40.428123Q152.39688 39.13125 153.49063 38.240623Q154.58438 37.334373 156.30313 37.334373Q158.1 37.334373 159.20938 38.271873Q160.33438 39.19375 160.33438 40.63125L158.50626 40.63125Q158.50626 39.896873 157.88126 39.365623Q157.25626 38.81875 156.30313 38.81875Q155.30313 38.81875 154.74063 39.25625Q154.19376 39.678123 154.19376 40.38125Q154.19376 41.021873 154.70938 41.365623Q155.225 41.69375 156.58438 42.00625Q157.94376 42.303123 158.77188 42.725Q159.61563 43.13125 160.02188 43.725Q160.42813 44.31875 160.42813 45.1625Q160.42813 46.584373 159.2875 47.44375Q158.1625 48.303123 156.35 48.303123Q155.08438 48.303123 154.1 47.85Q153.13126 47.396873 152.56876 46.6Q152.02188 45.7875 152.02188 44.85L153.83438 44.85Q153.88126 45.75625 154.55313 46.2875Q155.24063 46.81875 156.35 46.81875Q157.38126 46.81875 157.99063 46.4125Q158.61563 45.990623 158.61563 45.303123ZM166.85 48.303123Q164.70938 48.303123 163.35 46.896873Q162.00626 45.475 162.00626 43.115623L162.00626 42.771873Q162.00626 41.209373 162.6 39.975Q163.20938 38.740623 164.2875 38.0375Q165.36563 37.334373 166.63126 37.334373Q168.69376 37.334373 169.83438 38.69375Q170.975 40.053123 170.975 42.584373L170.975 43.334373L163.81876 43.334373Q163.85 44.896873 164.725 45.865623Q165.6 46.81875 166.94376 46.81875Q167.9125 46.81875 168.56876 46.428123Q169.24063 46.0375 169.74063 45.396873L170.83438 46.25625Q169.50626 48.303123 166.85 48.303123ZM166.63126 38.81875Q165.5375 38.81875 164.7875 39.615623Q164.05313 40.4125 163.88126 41.85L169.1625 41.85L169.1625 41.709373Q169.08438 40.334373 168.4125 39.584373Q167.75626 38.81875 166.63126 38.81875ZM177.70938 46.81875Q178.67813 46.81875 179.39688 46.240623Q180.11563 45.646873 180.19376 44.771873L181.9125 44.771873Q181.85 45.678123 181.27188 46.50625Q180.70938 47.31875 179.74063 47.81875Q178.7875 48.303123 177.70938 48.303123Q175.55313 48.303123 174.27188 46.865623Q173.00626 45.4125 173.00626 42.9125L173.00626 42.615623Q173.00626 41.06875 173.56876 39.865623Q174.13126 38.6625 175.19376 38.00625Q176.25626 37.334373 177.69376 37.334373Q179.475 37.334373 180.64688 38.396873Q181.83438 39.459373 181.9125 41.1625L180.19376 41.1625Q180.11563 40.146873 179.4125 39.490623Q178.725 38.81875 177.69376 38.81875Q176.31876 38.81875 175.55313 39.81875Q174.80313 40.803123 174.80313 42.678123L174.80313 43.021873Q174.80313 44.85 175.55313 45.834373Q176.30313 46.81875 177.70938 46.81875ZM182.99063 42.725Q182.99063 41.1625 183.6 39.928123Q184.20938 38.678123 185.2875 38.00625Q186.38126 37.334373 187.7875 37.334373Q189.94376 37.334373 191.27188 38.834373Q192.61563 40.31875 192.61563 42.803123L192.61563 42.928123Q192.61563 44.475 192.02188 45.709373Q191.42813 46.928123 190.31876 47.615623Q189.225 48.303123 187.80313 48.303123Q185.6625 48.303123 184.31876 46.803123Q182.99063 45.303123 182.99063 42.85L182.99063 42.725ZM184.80313 42.928123Q184.80313 44.69375 185.61563 45.75625Q186.44376 46.81875 187.80313 46.81875Q189.17813 46.81875 189.99063 45.740623Q190.80313 44.6625 190.80313 42.725Q190.80313 40.975 189.975 39.896873Q189.14688 38.81875 187.7875 38.81875Q186.44376 38.81875 185.61563 39.88125Q184.80313 40.94375 184.80313 42.928123ZM196.17813 37.5375L196.24063 38.865623Q197.44376 37.334373 199.39688 37.334373Q202.75626 37.334373 202.77188 41.115623L202.77188 48.1L200.975 48.1L200.975 41.1Q200.95938 39.959373 200.44376 39.4125Q199.94376 38.865623 198.85 38.865623Q197.975 38.865623 197.30313 39.334373Q196.64688 39.803123 196.27188 40.56875L196.27188 48.1L194.475 48.1L194.475 37.5375L196.17813 37.5375ZM205.02188 42.725Q205.02188 40.303123 206.17813 38.81875Q207.33438 37.334373 209.19376 37.334373Q211.05313 37.334373 212.13126 38.6L212.13126 33.1L213.94376 33.1L213.94376 48.1L212.2875 48.1L212.19376 46.959373Q211.11563 48.303123 209.17813 48.303123Q207.35 48.303123 206.17813 46.803123Q205.02188 45.2875 205.02188 42.865623L205.02188 42.725ZM206.83438 42.928123Q206.83438 44.725 207.56876 45.740623Q208.31876 46.75625 209.63126 46.75625Q211.35 46.75625 212.13126 45.225L212.13126 40.365623Q211.33438 38.865623 209.64688 38.865623Q208.31876 38.865623 207.56876 39.896873Q206.83438 40.928123 206.83438 42.928123Z" fill-rule="nonzero"/></svg>